<?xml version="1.0" encoding="UTF-8" standalone="no"?>
<!-- Created with Inkscape (http://www.inkscape.org/) -->

<svg
   xmlns:dc="http://purl.org/dc/elements/1.1/"
   xmlns:cc="http://creativecommons.org/ns#"
   xmlns:rdf="http://www.w3.org/1999/02/22-rdf-syntax-ns#"
   xmlns:svg="http://www.w3.org/2000/svg"
   xmlns="http://www.w3.org/2000/svg"
   xmlns:sodipodi="http://sodipodi.sourceforge.net/DTD/sodipodi-0.dtd"
   xmlns:inkscape="http://www.inkscape.org/namespaces/inkscape"
   id="svg2"
   version="1.1"
   inkscape:version="0.47 r22583"
   width="530.19739"
   height="136.20764"
   xml:space="preserve"
   sodipodi:docname="EWBstu_2c_UMn-OL-lrg.eps"><metadata
     id="metadata8"><rdf:RDF><cc:Work
         rdf:about=""><dc:format>image/svg+xml</dc:format><dc:type
           rdf:resource="http://purl.org/dc/dcmitype/StillImage" /><dc:title></dc:title></cc:Work></rdf:RDF></metadata><defs
     id="defs6"><inkscape:perspective
       sodipodi:type="inkscape:persp3d"
       inkscape:vp_x="0 : 0.5 : 1"
       inkscape:vp_y="0 : 1000 : 0"
       inkscape:vp_z="1 : 0.5 : 1"
       inkscape:persp3d-origin="0.5 : 0.33333333 : 1"
       id="perspective10" /><clipPath
       clipPathUnits="userSpaceOnUse"
       id="clipPath20"><path
         d="M 0,1208.45 0,0 l 4241.58,0 0,1208.45 -4241.58,0 z"
         id="path22" /></clipPath></defs><sodipodi:namedview
     pagecolor="#ffffff"
     bordercolor="#666666"
     borderopacity="1"
     objecttolerance="10"
     gridtolerance="10"
     guidetolerance="10"
     inkscape:pageopacity="0"
     inkscape:pageshadow="2"
     inkscape:window-width="1024"
     inkscape:window-height="524"
     id="namedview4"
     showgrid="false"
     inkscape:zoom="1.3485026"
     inkscape:cx="253.85796"
     inkscape:cy="35.213865"
     inkscape:window-x="0"
     inkscape:window-y="0"
     inkscape:window-maximized="1"
     inkscape:current-layer="g12" /><g
     id="g12"
     inkscape:groupmode="layer"
     inkscape:label="ink_ext_XXXXXX"
     transform="matrix(1.25,0,0,-1.25,-1.1475129e-4,151.05583)"><g
       id="g14"
       transform="scale(0.1,0.1)"><g
         id="g16"><g
           id="g18"
           clip-path="url(#clipPath20)"><path
             d="m 733.574,528.656 c -79.961,-75.898 -370.976,-210.968 -576.129,8.211 -90.2028,96.36 -184.5934,243.574 -8.738,474.853 19.289,25.38 283.477,248.88 570.473,174.55 498.17,-129.04 465.51,-523.786 468.03,-526.278 2.57,-2.519 -47.34,54.356 -174.8,57.285 C 817.578,721.75 733.574,528.656 733.574,528.656"
             style="fill:#1476c6;fill-opacity:1;fill-rule:nonzero;stroke:none"
             id="path24" /><path
             d="m 950.574,719.438 c 68.366,0 123.776,52.546 123.776,117.382 0,64.828 -55.41,117.375 -123.776,117.375 -68.332,0 -123.75,-52.547 -123.75,-117.375 0,-64.836 55.418,-117.382 123.75,-117.382"
             style="fill:#231f20;fill-opacity:1;fill-rule:nonzero;stroke:none"
             id="path26" /><path
             d="M 95.5469,932.945 C -43.8672,307.602 636.988,378.059 731.293,537.992 768.395,600.871 653.613,264.398 397.328,243.891 363.617,241.176 69.2812,233.645 15.9805,594.504 -14.2812,799.34 95.5469,932.945 95.5469,932.945"
             style="fill:#231f20;fill-opacity:1;fill-rule:nonzero;stroke:none"
             id="path28" /><path
             d="M 843.578,179.16 C 755.598,138.82 716.602,128.379 601.371,129.648 280.738,133.172 8.83203,323.938 10.7734,679.457 12.3594,969.66 273.727,1197.37 593.441,1197.37 c 319.711,0 590.639,-235.62 590.639,-525.854 0,-47.657 0,-54.891 -6.03,-93.496"
             style="fill:none;stroke:#bfd2ef;stroke-width:21.52429962;stroke-linecap:butt;stroke-linejoin:miter;stroke-miterlimit:4;stroke-opacity:1;stroke-dasharray:none"
             id="path30" /><path
             d="m 185.621,619.211 c 40.793,330.277 211.75,545.929 529.289,564.499"
             style="fill:none;stroke:#bfd2ef;stroke-width:21.52280045;stroke-linecap:butt;stroke-linejoin:miter;stroke-miterlimit:4;stroke-opacity:1;stroke-dasharray:none"
             id="path32" /><path
             d="m 779.402,594.27 c 65.981,208.222 47.965,430.24 -49.816,586.33"
             style="fill:none;stroke:#bfd2ef;stroke-width:21.52280045;stroke-linecap:butt;stroke-linejoin:miter;stroke-miterlimit:4;stroke-opacity:1;stroke-dasharray:none"
             id="path34" /><path
             d="M 723.98,1183.91 570.852,435.102"
             style="fill:none;stroke:#bfd2ef;stroke-width:21.52429962;stroke-linecap:butt;stroke-linejoin:miter;stroke-miterlimit:4;stroke-opacity:1;stroke-dasharray:none"
             id="path36" /><path
             d="m 380.359,1156.82 c 0,0 290.957,-193.457 595.344,-95.99"
             style="fill:none;stroke:#bfd2ef;stroke-width:21.52280045;stroke-linecap:butt;stroke-linejoin:miter;stroke-miterlimit:4;stroke-opacity:1;stroke-dasharray:none"
             id="path38" /><path
             d="m 342.426,894.836 c -0.606,-4.91 12.574,-62.777 25.75,-82.453 19.719,10.922 42.957,28.855 56.234,46.664 29.645,-7.012 33.817,-11.617 79.539,2.512 -29.949,-23.782 -31.543,-54.215 -51.258,-88.696 32.039,42.477 82.621,18.282 127.852,38.985 5.371,2.472 18.855,9.488 20.844,25.203 0.949,23.828 0,43.379 -32.266,58.871 -7.754,3.723 -12.246,3.129 -21.148,3.359 2.832,1.434 12.16,49.903 39.269,55.246 -25.621,24.118 -45.914,12.618 -58.875,2.555 -15.48,-12.027 -12.472,-26.492 -29.734,-36.199 13.41,19.269 -32.184,58.707 -57.793,61.488 -25.606,2.77 -60.57,2 -78.11,-24.484 0,0 33.375,-1.844 48.973,-25.203 16.649,-24.946 36.113,-30.711 36.113,-30.711 0,0 -75.613,-18.25 -105.39,-7.137"
             style="fill:#ffffff;fill-opacity:1;fill-rule:nonzero;stroke:none"
             id="path40" /><path
             d="m 342.426,894.836 c -0.606,-4.91 12.574,-62.777 25.75,-82.453 19.719,10.922 42.957,28.855 56.234,46.664 29.645,-7.012 33.817,-11.617 79.539,2.512 -29.949,-23.782 -31.543,-54.215 -51.258,-88.696 32.039,42.477 82.621,18.282 127.852,38.985 5.371,2.472 18.855,9.488 20.844,25.203 0.949,23.828 0,43.379 -32.266,58.871 -7.754,3.723 -12.246,3.129 -21.148,3.359 2.832,1.434 12.16,49.903 39.269,55.246 -25.621,24.118 -45.914,12.618 -58.875,2.555 -15.48,-12.027 -12.472,-26.492 -29.734,-36.199 13.41,19.269 -32.184,58.707 -57.793,61.488 -25.606,2.77 -60.57,2 -78.11,-24.484 0,0 33.375,-1.844 48.973,-25.203 16.649,-24.946 36.113,-30.711 36.113,-30.711 0,0 -75.613,-18.25 -105.39,-7.137 z"
             style="fill:none;stroke:#bfd2ef;stroke-width:13.32549953;stroke-linecap:butt;stroke-linejoin:round;stroke-miterlimit:4;stroke-opacity:1;stroke-dasharray:none"
             id="path42" /><path
             d="m 617.008,995.16 c 0,0 -35.895,-31.027 -7.981,-77.926"
             style="fill:none;stroke:#bfd2ef;stroke-width:12.30249977;stroke-linecap:butt;stroke-linejoin:miter;stroke-miterlimit:4;stroke-opacity:1;stroke-dasharray:none"
             id="path44" /><path
             d="m 615.336,994.418 c 32.699,38.672 93.316,0 0,0"
             style="fill:none;stroke:#bfd2ef;stroke-width:12.30249977;stroke-linecap:butt;stroke-linejoin:miter;stroke-miterlimit:4;stroke-opacity:1;stroke-dasharray:none"
             id="path46" /><path
             d="m 601.684,955.242 c 32.695,38.66 93.312,0 0,0"
             style="fill:none;stroke:#bfd2ef;stroke-width:12.30249977;stroke-linecap:butt;stroke-linejoin:miter;stroke-miterlimit:4;stroke-opacity:1;stroke-dasharray:none"
             id="path48" /><path
             d="M 155,1019.39 C 111.285,950.871 86.2461,885.637 76.2695,825.176 75.2109,818.723 74.4141,812.309 73.5977,805.953 25.5703,438.051 537.875,263.012 776.785,592.141 c 164.172,226.199 396.195,80.597 404.885,74.55 13.62,256.438 -215.955,470.369 -470.549,519.689 -37.176,7.21 -75.707,12.7 -115.105,10.99 C 294.355,1184.36 10.7734,1004.19 10.7734,656.137 10.7734,139.301 649.062,38.3281 817.395,266.625"
             style="fill:none;stroke:#bfd2ef;stroke-width:21.52429962;stroke-linecap:butt;stroke-linejoin:miter;stroke-miterlimit:4;stroke-opacity:1;stroke-dasharray:none"
             id="path50" /><path
             d="M 39.9805,488.82 C 103.562,229.348 559.91,81.5703 741.008,534.066 c 0,0 13.433,29.571 22.168,41.192"
             style="fill:none;stroke:#bfd2ef;stroke-width:21.52280045;stroke-linecap:butt;stroke-linejoin:miter;stroke-miterlimit:4;stroke-opacity:1;stroke-dasharray:none"
             id="path52" /><path
             d="m 302.598,686.32 c -68.356,0 -123.766,-52.566 -123.766,-117.382 0,-64.825 55.41,-117.403 123.766,-117.403 68.343,0 123.75,52.578 123.75,117.403 0,64.816 -55.407,117.382 -123.75,117.382"
             style="fill:#ffffff;fill-opacity:1;fill-rule:nonzero;stroke:none"
             id="path54" /><path
             d="m 302.598,686.32 c -68.356,0 -123.766,-52.566 -123.766,-117.382 0,-64.825 55.41,-117.403 123.766,-117.403 68.343,0 123.75,52.578 123.75,117.403 0,64.816 -55.407,117.382 -123.75,117.382 z"
             style="fill:none;stroke:#bfd2ef;stroke-width:21.52280045;stroke-linecap:butt;stroke-linejoin:miter;stroke-miterlimit:4;stroke-opacity:1;stroke-dasharray:none"
             id="path56" /><path
             d="M 71.4453,772.59 C 114.285,719.465 204.457,666.977 215.426,659.465"
             style="fill:none;stroke:#bfd2ef;stroke-width:21.52429962;stroke-linecap:butt;stroke-linejoin:miter;stroke-miterlimit:4;stroke-opacity:1;stroke-dasharray:none"
             id="path58" /><path
             d="M 426.246,579.055 C 614.707,518.754 741.648,537.902 741.648,537.902"
             style="fill:none;stroke:#bfd2ef;stroke-width:22.57360077;stroke-linecap:butt;stroke-linejoin:miter;stroke-miterlimit:4;stroke-opacity:1;stroke-dasharray:none"
             id="path60" /><path
             d="M 735.668,1177.77 C 904.211,1067.96 903.004,1008.2 934.238,947.941"
             style="fill:none;stroke:#bfd2ef;stroke-width:21.52280045;stroke-linecap:butt;stroke-linejoin:miter;stroke-miterlimit:4;stroke-opacity:1;stroke-dasharray:none"
             id="path62" /><path
             d="m 1134,866.973 c -24.53,-11.164 -49.14,-17.2 -56.96,-19.426"
             style="fill:#231f20;fill-opacity:1;fill-rule:nonzero;stroke:none"
             id="path64" /><path
             d="m 1134,866.973 c -24.53,-11.164 -49.14,-17.2 -56.96,-19.426"
             style="fill:none;stroke:#bfd2ef;stroke-width:21.52429962;stroke-linecap:butt;stroke-linejoin:miter;stroke-miterlimit:4;stroke-opacity:1;stroke-dasharray:none"
             id="path66" /><path
             d="M 161.207,1006.8 C 248.051,928.031 326.82,886.82 344.488,880.191"
             style="fill:none;stroke:#bfd2ef;stroke-width:21.5067997;stroke-linecap:round;stroke-linejoin:miter;stroke-miterlimit:4;stroke-opacity:1;stroke-dasharray:none"
             id="path68" /><path
             d="M 593.277,820.215 C 633.77,807.688 791.273,792.23 825.145,801.082"
             style="fill:none;stroke:#bfd2ef;stroke-width:21.52429962;stroke-linecap:butt;stroke-linejoin:round;stroke-miterlimit:4;stroke-opacity:1;stroke-dasharray:none"
             id="path70" /><path
             d="M 713.695,1177.41 C 574.734,1109.59 489.137,955.062 489.137,955.062"
             style="fill:none;stroke:#bfd2ef;stroke-width:21.52280045;stroke-linecap:butt;stroke-linejoin:miter;stroke-miterlimit:4;stroke-opacity:1;stroke-dasharray:none"
             id="path72" /><path
             d="M 451.344,837.305 C 424.652,775.051 403.523,650.531 402.418,641.645"
             style="fill:none;stroke:#bfd2ef;stroke-width:21.52429962;stroke-linecap:butt;stroke-linejoin:miter;stroke-miterlimit:4;stroke-opacity:1;stroke-dasharray:none"
             id="path74" /><path
             d="m 950.574,719.438 c 68.366,0 123.776,52.546 123.776,117.382 0,64.828 -55.41,117.375 -123.776,117.375 -68.332,0 -123.75,-52.547 -123.75,-117.375 0,-64.836 55.418,-117.382 123.75,-117.382 z"
             style="fill:none;stroke:#bfd2ef;stroke-width:21.52280045;stroke-linecap:butt;stroke-linejoin:miter;stroke-miterlimit:4;stroke-opacity:1;stroke-dasharray:none"
             id="path76" /><path
             d="m 949.668,457.453 c 0,26.602 0,31.504 -0.348,37.102 -0.351,5.957 -1.754,8.75 -7.527,9.98 -1.398,0.352 -4.375,0.527 -6.82,0.527 -1.93,0 -2.981,0.34 -2.981,1.571 0,1.222 1.227,1.574 3.852,1.574 4.722,0 9.801,-0.176 14.176,-0.176 4.55,-0.176 8.574,-0.351 11.027,-0.351 5.598,0 40.423,0 43.753,0.175 3.33,0.352 6.13,0.704 7.52,1.055 0.88,0.176 1.93,0.703 2.81,0.703 0.87,0 1.05,-0.703 1.05,-1.582 0,-1.222 -0.88,-3.32 -1.4,-11.379 -0.18,-1.746 -0.53,-9.441 -0.88,-11.55 -0.17,-0.872 -0.52,-1.926 -1.75,-1.926 -1.22,0 -1.57,0.879 -1.57,2.453 0,1.23 -0.18,4.199 -1.05,6.297 -1.23,3.156 -2.98,5.254 -11.733,6.308 -2.973,0.344 -21.352,0.696 -24.848,0.696 -0.879,0 -1.226,-0.52 -1.226,-1.75 l 0,-44.278 c 0,-1.23 0.175,-1.922 1.226,-1.922 3.848,0 23.977,0 28.001,0.352 4.2,0.34 6.82,0.867 8.4,2.617 1.23,1.406 1.92,2.274 2.8,2.274 0.7,0 1.23,-0.34 1.23,-1.395 0,-1.055 -0.7,-3.848 -1.4,-12.773 -0.18,-3.508 -0.71,-10.508 -0.71,-11.731 0,-1.394 0,-3.328 -1.57,-3.328 -1.22,0 -1.57,0.703 -1.57,1.582 -0.18,1.746 -0.18,4.024 -0.7,6.297 -0.88,3.496 -3.33,6.125 -9.801,6.828 -3.328,0.352 -20.656,0.527 -24.856,0.527 -0.875,0 -1.05,-0.703 -1.05,-1.757 l 0,-13.821 c 0,-5.957 -0.176,-22.058 0,-27.129 0.347,-12.078 3.148,-14.707 21.004,-14.707 4.546,0 11.893,0 16.443,2.102 4.56,2.098 6.66,5.781 7.88,12.957 0.35,1.926 0.7,2.617 1.92,2.617 1.41,0 1.41,-1.394 1.41,-3.144 0,-4.024 -1.41,-15.926 -2.28,-19.434 -1.22,-4.551 -2.8,-4.551 -9.45,-4.551 -13.127,0 -22.752,0.352 -30.275,0.528 -7.531,0.351 -12.953,0.527 -18.203,0.527 -1.926,0 -5.777,0 -9.977,-0.176 -4.023,0 -8.574,-0.351 -12.074,-0.351 -2.277,0 -3.504,0.527 -3.504,1.75 0,0.879 0.699,1.406 2.801,1.406 2.625,0 4.727,0.351 6.305,0.703 3.5,0.691 4.375,4.539 5.07,9.617 0.875,7.356 0.875,21.184 0.875,37.285 l 0,30.801"
             style="fill:#231f20;fill-opacity:1;fill-rule:nonzero;stroke:none"
             id="path78" /><path
             d="m 1062.9,396.195 c 0.35,-11.554 2.27,-15.05 5.24,-16.105 2.63,-0.867 5.61,-1.043 8.06,-1.043 1.74,0 2.62,-0.703 2.62,-1.574 0,-1.231 -1.4,-1.582 -3.5,-1.582 -9.97,0 -17.15,0.527 -19.95,0.527 -1.4,0 -8.75,-0.527 -16.63,-0.527 -2.1,0 -3.5,0.175 -3.5,1.582 0,0.871 1.05,1.574 2.45,1.574 2.1,0 4.9,0.176 7,0.703 4.03,1.043 4.55,5.066 4.73,18.016 l 1.4,88.214 c 0,2.977 1.05,5.079 2.62,5.079 1.93,0 4.03,-2.278 6.65,-4.903 1.93,-1.926 25.03,-25.558 47.43,-47.433 10.51,-10.321 30.98,-31.328 33.26,-33.426 l 0.7,0 -1.58,66.16 c -0.17,9.102 -1.57,11.719 -5.25,13.125 -2.27,0.871 -5.95,0.871 -8.05,0.871 -1.92,0 -2.45,0.703 -2.45,1.582 0,1.219 1.58,1.395 3.85,1.395 8.05,0 16.28,-0.352 19.6,-0.352 1.76,0 7.53,0.352 15.06,0.352 2.1,0 3.5,-0.176 3.5,-1.395 0,-0.879 -0.88,-1.582 -2.63,-1.582 -1.58,0 -2.8,0 -4.73,-0.519 -4.2,-1.231 -5.42,-3.856 -5.6,-12.254 l -1.74,-93.809 c 0,-3.332 -1.23,-4.726 -2.46,-4.726 -2.62,0 -4.72,1.57 -6.29,3.152 -9.63,8.926 -28.89,27.297 -44.99,42.871 -16.8,16.105 -33.08,34.133 -36.05,36.758 l -0.53,0 1.76,-60.731"
             style="fill:#231f20;fill-opacity:1;fill-rule:nonzero;stroke:none"
             id="path80" /><path
             d="m 1292.68,385.871 c 0,-4.023 0,-4.199 -1.93,-5.254 -10.32,-5.078 -25.55,-6.648 -37.62,-6.648 -37.81,0 -71.24,17.148 -71.24,58.281 0,23.797 12.78,40.43 26.95,48.652 14.7,8.582 28.53,9.629 41.48,9.629 10.68,0 24.16,-1.75 27.31,-2.453 3.15,-0.527 8.57,-1.394 12.25,-1.57 1.75,-0.176 2.1,-0.703 2.1,-1.75 0,-1.758 -1.05,-5.781 -1.05,-24.5 0,-2.278 -0.88,-3.332 -2.1,-3.332 -1.05,0 -1.4,0.703 -1.58,1.926 -0.35,3.328 -1.22,8.054 -5.25,12.253 -4.55,4.727 -16.1,11.379 -33.43,11.379 -8.4,0 -19.07,-0.175 -29.75,-8.75 -8.58,-7.004 -14.18,-18.027 -14.18,-36.23 0,-32.031 20.66,-55.313 53.56,-55.313 4.03,0 7.18,0 10.85,1.582 2.28,1.043 2.98,2.625 2.98,5.243 l 0,13.652 c 0,7.355 0,12.949 -0.18,17.5 -0.18,5.078 -1.75,6.66 -6.65,8.059 -1.23,0.351 -3.85,0.527 -5.95,0.527 -1.4,0 -2.45,0.691 -2.45,1.57 0,1.223 1.23,1.399 3.33,1.399 8.04,0 19.07,-0.352 23.62,-0.352 4.9,0 12.95,0.352 18.03,0.352 2.1,0 3.15,-0.176 3.15,-1.399 0,-0.879 -0.88,-1.57 -1.93,-1.57 -1.22,0 -2.44,-0.176 -4.2,-0.527 -4.2,-0.704 -5.77,-2.805 -5.95,-8.059 -0.17,-4.551 -0.17,-10.496 -0.17,-17.852 l 0,-16.445"
             style="fill:#231f20;fill-opacity:1;fill-rule:nonzero;stroke:none"
             id="path82" /><path
             d="m 1335.71,445.375 c 0,22.578 0,26.777 -0.17,31.504 -0.35,5.078 -1.93,6.824 -5.25,7.879 -1.75,0.519 -3.67,0.695 -5.6,0.695 -1.57,0 -2.45,0.352 -2.45,1.758 0,0.867 1.22,1.219 3.67,1.219 5.78,0 16.28,-0.352 20.66,-0.352 3.85,0 13.82,0.352 19.77,0.352 1.93,0 3.15,-0.352 3.15,-1.219 0,-1.406 -0.87,-1.758 -2.44,-1.758 -1.58,0 -2.81,-0.176 -4.55,-0.519 -4.21,-0.704 -5.43,-2.801 -5.78,-8.055 -0.35,-4.727 -0.35,-8.926 -0.35,-31.504 l 0,-26.25 c 0,-14.355 0,-26.25 0.7,-32.559 0.52,-4.023 1.57,-6.3 6.12,-6.992 2.1,-0.351 5.6,-0.527 7.88,-0.527 1.75,0 2.45,-0.879 2.45,-1.574 0,-1.055 -1.23,-1.582 -2.98,-1.582 -10.15,0 -20.65,0.527 -24.85,0.527 -3.5,0 -14,-0.527 -20.12,-0.527 -1.93,0 -2.98,0.527 -2.98,1.582 0,0.695 0.53,1.574 2.45,1.574 2.27,0 4.02,0.176 5.42,0.527 3.15,0.692 4.03,2.793 4.55,7.168 0.7,6.133 0.7,18.028 0.7,32.383 l 0,26.25"
             style="fill:#231f20;fill-opacity:1;fill-rule:nonzero;stroke:none"
             id="path84" /><path
             d="m 1416.57,396.195 c 0.35,-11.554 2.27,-15.05 5.25,-16.105 2.62,-0.867 5.6,-1.043 8.05,-1.043 1.75,0 2.63,-0.703 2.63,-1.574 0,-1.231 -1.41,-1.582 -3.51,-1.582 -9.97,0 -17.15,0.527 -19.95,0.527 -1.4,0 -8.75,-0.527 -16.63,-0.527 -2.1,0 -3.49,0.175 -3.49,1.582 0,0.871 1.05,1.574 2.44,1.574 2.11,0 4.9,0.176 7,0.703 4.03,1.043 4.56,5.066 4.73,18.016 l 1.4,88.214 c 0,2.977 1.05,5.079 2.62,5.079 1.93,0 4.03,-2.278 6.65,-4.903 1.93,-1.926 25.03,-25.558 47.44,-47.433 10.5,-10.321 30.98,-31.328 33.25,-33.426 l 0.7,0 -1.58,66.16 c -0.17,9.102 -1.57,11.719 -5.25,13.125 -2.28,0.871 -5.95,0.871 -8.05,0.871 -1.92,0 -2.45,0.703 -2.45,1.582 0,1.219 1.57,1.395 3.85,1.395 8.06,0 16.28,-0.352 19.61,-0.352 1.75,0 7.52,0.352 15.05,0.352 2.1,0 3.49,-0.176 3.49,-1.395 0,-0.879 -0.86,-1.582 -2.61,-1.582 -1.58,0 -2.81,0 -4.73,-0.519 -4.2,-1.231 -5.43,-3.856 -5.6,-12.254 l -1.75,-93.809 c 0,-3.332 -1.23,-4.726 -2.45,-4.726 -2.63,0 -4.73,1.57 -6.3,3.152 -9.63,8.926 -28.88,27.297 -44.98,42.871 -16.81,16.105 -33.08,34.133 -36.06,36.758 l -0.53,0 1.76,-60.731"
             style="fill:#231f20;fill-opacity:1;fill-rule:nonzero;stroke:none"
             id="path86" /><path
             d="m 1554.11,445.375 c 0,22.578 0,26.777 -0.17,31.504 -0.36,5.078 -1.75,6.648 -6.65,8.055 -1.24,0.343 -3.85,0.519 -6.13,0.519 -1.58,0 -2.62,0.527 -2.62,1.582 0,1.043 1.22,1.395 3.49,1.395 8.06,0 17.85,-0.352 22.23,-0.352 4.9,0 39.03,-0.176 42,0 2.8,0.176 5.25,0.703 6.48,0.879 0.87,0.176 1.75,0.695 2.45,0.695 0.87,0 1.05,-0.695 1.05,-1.398 0,-1.043 -0.88,-2.801 -1.22,-9.629 -0.18,-1.57 -0.53,-8.047 -0.88,-9.793 -0.18,-0.703 -0.53,-2.453 -1.75,-2.453 -1.05,0 -1.23,0.703 -1.23,1.926 0,1.054 -0.17,3.672 -1.04,5.429 -1.23,2.618 -2.45,4.715 -10.16,5.418 -2.63,0.352 -21,0.703 -24.15,0.703 -0.7,0 -1.04,-0.527 -1.04,-1.406 l 0,-36.746 c 0,-0.879 0.16,-1.574 1.04,-1.574 3.5,0 23.46,0 26.95,0.344 3.68,0.351 5.95,0.703 7.36,2.273 1.22,1.055 1.75,1.934 2.45,1.934 0.69,0 1.22,-0.703 1.22,-1.582 0,-0.868 -0.35,-3.321 -1.22,-10.848 -0.35,-2.98 -0.7,-8.926 -0.7,-9.973 0,-1.23 -0.18,-3.328 -1.58,-3.328 -1.05,0 -1.4,0.528 -1.4,1.219 -0.18,1.582 -0.18,3.508 -0.52,5.43 -0.88,2.98 -2.8,5.254 -8.58,5.773 -2.8,0.352 -20.31,0.703 -24.16,0.703 -0.7,0 -0.86,-0.703 -0.86,-1.574 l 0,-11.902 c 0,-5.078 -0.18,-17.676 0,-22.051 0.34,-10.149 5.06,-12.422 20.82,-12.422 4.02,0 10.5,0.164 14.53,1.922 3.84,1.75 5.59,4.902 6.65,11.027 0.35,1.571 0.69,2.274 1.75,2.274 1.22,0 1.39,-1.922 1.39,-3.504 0,-3.321 -1.22,-13.477 -2.1,-16.446 -1.04,-3.859 -2.45,-3.859 -8.22,-3.859 -11.55,0 -20.83,0.176 -28.35,0.527 -7.53,0.176 -13.3,0.352 -17.85,0.352 -1.76,0 -5.08,-0.176 -8.75,-0.176 -3.68,-0.176 -7.53,-0.351 -10.68,-0.351 -1.93,0 -2.97,0.527 -2.97,1.582 0,0.695 0.51,1.574 2.45,1.574 2.27,0 4.02,0.176 5.42,0.527 3.15,0.692 4.02,3.496 4.55,7.871 0.7,6.297 0.7,18.028 0.7,31.68 l 0,26.25"
             style="fill:#231f20;fill-opacity:1;fill-rule:nonzero;stroke:none"
             id="path88" /><path
             d="m 1651.42,445.375 c 0,22.578 0,26.777 -0.18,31.504 -0.35,5.078 -1.75,6.648 -6.65,8.055 -1.23,0.343 -3.85,0.519 -6.12,0.519 -1.59,0 -2.63,0.527 -2.63,1.582 0,1.043 1.22,1.395 3.5,1.395 8.05,0 17.85,-0.352 22.22,-0.352 4.9,0 39.04,-0.176 42,0 2.81,0.176 5.26,0.703 6.49,0.879 0.87,0.176 1.75,0.695 2.44,0.695 0.88,0 1.05,-0.695 1.05,-1.398 0,-1.043 -0.87,-2.801 -1.22,-9.629 -0.17,-1.57 -0.52,-8.047 -0.87,-9.793 -0.18,-0.703 -0.53,-2.453 -1.75,-2.453 -1.06,0 -1.23,0.703 -1.23,1.926 0,1.054 -0.18,3.672 -1.05,5.429 -1.23,2.618 -2.45,4.715 -10.15,5.418 -2.63,0.352 -21,0.703 -24.15,0.703 -0.71,0 -1.05,-0.527 -1.05,-1.406 l 0,-36.746 c 0,-0.879 0.17,-1.574 1.05,-1.574 3.49,0 23.45,0 26.95,0.344 3.67,0.351 5.95,0.703 7.35,2.273 1.22,1.055 1.75,1.934 2.45,1.934 0.7,0 1.22,-0.703 1.22,-1.582 0,-0.868 -0.35,-3.321 -1.22,-10.848 -0.35,-2.98 -0.7,-8.926 -0.7,-9.973 0,-1.23 -0.18,-3.328 -1.57,-3.328 -1.06,0 -1.41,0.528 -1.41,1.219 -0.17,1.582 -0.17,3.508 -0.52,5.43 -0.88,2.98 -2.8,5.254 -8.58,5.773 -2.79,0.352 -20.3,0.703 -24.15,0.703 -0.7,0 -0.87,-0.703 -0.87,-1.574 l 0,-11.902 c 0,-5.078 -0.18,-17.676 0,-22.051 0.34,-10.149 5.07,-12.422 20.82,-12.422 4.02,0 10.51,0.164 14.53,1.922 3.85,1.75 5.6,4.902 6.65,11.027 0.35,1.571 0.7,2.274 1.75,2.274 1.22,0 1.4,-1.922 1.4,-3.504 0,-3.321 -1.22,-13.477 -2.1,-16.446 -1.05,-3.859 -2.45,-3.859 -8.23,-3.859 -11.55,0 -20.83,0.176 -28.35,0.527 -7.52,0.176 -13.3,0.352 -17.85,0.352 -1.75,0 -5.07,-0.176 -8.75,-0.176 -3.68,-0.176 -7.53,-0.351 -10.68,-0.351 -1.92,0 -2.97,0.527 -2.97,1.582 0,0.695 0.52,1.574 2.45,1.574 2.28,0 4.03,0.176 5.42,0.527 3.16,0.692 4.03,3.496 4.55,7.871 0.71,6.297 0.71,18.028 0.71,31.68 l 0,26.25"
             style="fill:#231f20;fill-opacity:1;fill-rule:nonzero;stroke:none"
             id="path90" /><path
             d="m 1768.32,433.82 c 0,-1.57 0.35,-2.097 1.4,-2.617 3.33,-1.055 7.88,-1.406 11.73,-1.406 6.12,0 8.22,0.527 10.84,2.453 4.73,3.328 9.99,9.805 9.99,22.051 0,21.004 -14.36,26.426 -23.46,26.426 -3.85,0 -7.52,-0.168 -9.1,-0.52 -1.05,-0.352 -1.4,-0.879 -1.4,-2.098 l 0,-44.289 z m -19.6,11.555 c 0,22.578 0,26.777 -0.18,31.504 -0.35,5.078 -1.74,6.648 -6.65,8.055 -1.23,0.343 -3.84,0.519 -6.12,0.519 -1.58,0 -2.63,0.527 -2.63,1.582 0,1.043 1.23,1.395 3.5,1.395 8.06,0 17.85,-0.352 21.01,-0.352 5.24,0 19.24,0.352 23.97,0.352 9.81,0 21.01,-0.879 29.23,-6.297 4.37,-2.981 10.85,-10.5 10.85,-20.481 0,-11.023 -6.3,-20.828 -21.35,-32.898 13.65,-16.809 24.5,-30.285 33.78,-39.563 8.58,-8.574 14,-9.277 16.45,-9.793 1.58,-0.351 2.45,-0.351 3.68,-0.351 1.22,0 1.92,-0.879 1.92,-1.574 0,-1.231 -1.05,-1.582 -2.98,-1.582 l -14.69,0 c -8.58,0 -12.79,0.879 -16.81,2.98 -6.65,3.32 -12.42,10.32 -21,21.875 -6.13,8.055 -12.6,18.027 -14.53,20.301 -0.88,0.879 -1.75,1.055 -2.8,1.055 l -13.83,0.343 c -0.69,0 -1.22,-0.343 -1.22,-1.222 l 0,-2.098 c 0,-13.828 0.18,-25.383 0.88,-31.68 0.52,-4.375 1.22,-7.179 5.95,-7.871 2.27,-0.351 5.59,-0.527 7.53,-0.527 1.22,0 1.92,-0.879 1.92,-1.574 0,-1.055 -1.23,-1.582 -3.15,-1.582 -8.93,0 -21.7,0.527 -23.98,0.527 -2.98,0 -12.77,-0.527 -18.91,-0.527 -1.92,0 -2.96,0.527 -2.96,1.582 0,0.695 0.51,1.574 2.45,1.574 2.27,0 4.02,0.176 5.42,0.527 3.15,0.692 4.02,3.496 4.55,7.871 0.7,6.297 0.7,18.028 0.7,31.68 l 0,26.25"
             style="fill:#231f20;fill-opacity:1;fill-rule:nonzero;stroke:none"
             id="path92" /><path
             d="m 1857.74,377.816 c -2.45,1.055 -2.97,1.758 -2.97,5.079 0,8.054 0.7,17.324 0.86,19.773 0,2.277 0.71,3.859 1.94,3.859 1.39,0 1.57,-1.406 1.57,-2.453 0,-1.922 0.53,-5.078 1.4,-7.703 3.33,-11.027 14.88,-14.699 24.5,-14.699 13.3,0 21.36,8.398 21.36,18.898 0,6.473 -1.59,12.95 -15.23,21.004 l -8.92,5.254 c -18.21,10.676 -24.16,20.645 -24.16,33.77 0,18.203 17.51,29.933 38.85,29.933 9.98,0 17.85,-1.398 21.88,-2.453 1.4,-0.351 2.1,-0.867 2.1,-1.922 0,-1.926 -0.52,-6.125 -0.52,-17.851 0,-3.157 -0.7,-4.727 -1.93,-4.727 -1.05,0 -1.58,0.879 -1.58,2.625 0,1.399 -0.7,5.949 -4.02,9.805 -2.27,2.793 -7.18,6.992 -17.15,6.992 -11.03,0 -21,-5.77 -21,-15.918 0,-6.66 2.45,-11.902 16.28,-19.609 l 6.29,-3.496 c 20.31,-11.2 26.61,-22.579 26.61,-36.055 0,-11.024 -4.2,-19.949 -15.4,-27.832 -7.36,-5.242 -17.5,-6.121 -25.74,-6.121 -8.92,0 -18.37,0.879 -25.02,3.847"
             style="fill:#231f20;fill-opacity:1;fill-rule:nonzero;stroke:none"
             id="path94" /><path
             d="m 2001.05,491.059 c -2.09,6.472 -4.02,10.671 -6.47,12.421 -1.92,1.231 -5.43,1.582 -7,1.582 -1.75,0 -2.8,0.165 -2.8,1.571 0,1.222 1.4,1.574 3.85,1.574 9.1,0 18.72,-0.527 20.31,-0.527 1.57,0 9.26,0.527 19.42,0.527 2.45,0 3.67,-0.527 3.67,-1.574 0,-1.406 -1.4,-1.571 -3.14,-1.571 -1.41,0 -3.16,0 -4.38,-0.703 -1.58,-0.703 -1.92,-1.925 -1.92,-3.847 0,-2.278 1.75,-8.235 3.85,-16.106 2.96,-11.551 19.24,-64.578 22.4,-74.383 l 0.53,0 33.94,91.18 c 1.76,4.902 2.98,6.301 4.38,6.301 1.93,0 2.8,-2.617 5.07,-8.223 l 36.41,-88.039 0.53,0 c 3.14,11.731 17.14,57.942 23.26,78.41 1.23,4.032 1.76,7.703 1.76,10.157 0,2.8 -1.58,5.253 -8.41,5.253 -1.74,0 -2.97,0.516 -2.97,1.571 0,1.222 1.4,1.574 4.03,1.574 9.29,0 16.63,-0.527 18.21,-0.527 1.21,0 8.75,0.527 14.51,0.527 1.94,0 3.17,-0.352 3.17,-1.398 0,-1.231 -0.88,-1.747 -2.46,-1.747 -1.74,0 -4.2,-0.175 -6.12,-0.878 -4.2,-1.575 -6.13,-8.575 -9.8,-18.555 -8.05,-22.051 -26.43,-77.707 -35.01,-103.957 -1.93,-6.133 -2.8,-8.231 -5.08,-8.231 -1.74,0 -2.8,2.098 -5.42,8.582 l -36.4,87.676 -0.35,0 c -3.33,-8.926 -26.6,-70.879 -34.13,-86.98 -3.33,-7.18 -4.2,-9.278 -6.3,-9.278 -1.75,0 -2.45,1.922 -4.03,6.473 l -37.11,111.145"
             style="fill:#231f20;fill-opacity:1;fill-rule:nonzero;stroke:none"
             id="path96" /><path
             d="m 2203,445.375 c 0,22.578 0,26.777 -0.17,31.504 -0.35,5.078 -1.92,6.824 -5.26,7.879 -1.74,0.519 -3.67,0.695 -5.58,0.695 -1.58,0 -2.46,0.352 -2.46,1.758 0,0.867 1.23,1.219 3.67,1.219 5.78,0 16.29,-0.352 20.66,-0.352 3.85,0 13.83,0.352 19.77,0.352 1.93,0 3.16,-0.352 3.16,-1.219 0,-1.406 -0.88,-1.758 -2.46,-1.758 -1.58,0 -2.79,-0.176 -4.55,-0.519 -4.2,-0.704 -5.43,-2.801 -5.78,-8.055 -0.33,-4.727 -0.33,-8.926 -0.33,-31.504 l 0,-26.25 c 0,-14.355 0,-26.25 0.68,-32.559 0.53,-4.023 1.58,-6.3 6.13,-6.992 2.11,-0.351 5.61,-0.527 7.87,-0.527 1.76,0 2.47,-0.879 2.47,-1.574 0,-1.055 -1.24,-1.582 -2.99,-1.582 -10.14,0 -20.65,0.527 -24.85,0.527 -3.49,0 -14,-0.527 -20.13,-0.527 -1.92,0 -2.97,0.527 -2.97,1.582 0,0.695 0.53,1.574 2.46,1.574 2.26,0 4.02,0.176 5.41,0.527 3.16,0.692 4.02,2.793 4.55,7.168 0.7,6.133 0.7,18.028 0.7,32.383 l 0,26.25"
             style="fill:#231f20;fill-opacity:1;fill-rule:nonzero;stroke:none"
             id="path98" /><path
             d="m 2294.72,479.328 -22.93,-0.527 c -8.92,-0.176 -12.62,-1.219 -14.88,-4.551 -1.58,-2.098 -2.27,-4.023 -2.62,-5.066 -0.35,-1.231 -0.7,-1.934 -1.76,-1.934 -1.05,0 -1.4,0.879 -1.4,2.449 0,2.453 2.99,16.809 3.34,18.028 0.33,1.925 0.86,2.804 1.74,2.804 1.23,0 2.81,-1.222 6.66,-1.75 4.55,-0.527 10.31,-0.703 15.39,-0.703 l 62.48,0 c 4.9,0 8.22,0.352 10.51,0.703 2.44,0.352 3.67,0.703 4.19,0.703 1.06,0 1.23,-0.879 1.23,-3.152 0,-3.156 -0.35,-14.18 -0.35,-18.027 -0.17,-1.575 -0.52,-2.453 -1.4,-2.453 -1.23,0 -1.59,0.703 -1.74,2.98 l -0.18,1.57 c -0.35,3.848 -4.37,8.399 -18.2,8.575 l -19.43,0.351 0,-60.203 c 0,-13.652 0.17,-25.383 0.88,-31.855 0.52,-4.2 1.38,-7.004 5.93,-7.696 2.11,-0.351 5.61,-0.527 7.89,-0.527 1.74,0 2.44,-0.879 2.44,-1.574 0,-1.055 -1.23,-1.582 -2.96,-1.582 -10.16,0 -20.49,0.527 -24.87,0.527 -3.49,0 -14,-0.527 -20.11,-0.527 -1.94,0 -2.99,0.527 -2.99,1.582 0,0.695 0.52,1.574 2.46,1.574 2.26,0 4.2,0.176 5.43,0.527 3.14,0.692 4.02,3.496 4.55,7.871 0.7,6.297 0.7,18.028 0.7,31.68 l 0,60.203"
             style="fill:#231f20;fill-opacity:1;fill-rule:nonzero;stroke:none"
             id="path100" /><path
             d="m 2464.82,439.953 c 0.35,0 0.88,0.176 0.88,1.047 l 0,3.152 c 0,22.578 -0.18,28 -0.35,32.727 -0.35,5.078 -1.76,6.648 -6.66,8.055 -1.23,0.343 -3.85,0.519 -5.94,0.519 -1.76,0 -2.64,0.527 -2.64,1.582 0,1.043 1.06,1.395 3.32,1.395 8.24,0 19.08,-0.352 23.11,-0.352 3.67,0 13.83,0.352 19.78,0.352 2.27,0 3.32,-0.352 3.32,-1.395 0,-1.055 -1.05,-1.582 -2.79,-1.582 -1.23,0 -2.64,-0.176 -4.55,-0.519 -4.02,-0.704 -5.25,-2.801 -5.61,-8.055 -0.35,-4.727 -0.35,-8.926 -0.35,-31.504 l 0,-26.25 c 0,-13.652 0,-25.383 0.71,-31.855 0.52,-4.2 1.4,-7.004 6.11,-7.696 2.11,-0.351 5.43,-0.527 7.89,-0.527 1.56,0 2.44,-0.879 2.44,-1.574 0,-1.055 -1.23,-1.582 -3.14,-1.582 -9.98,0 -20.14,0.527 -24.34,0.527 -3.5,0 -14.34,-0.527 -20.29,-0.527 -2.11,0 -3.32,0.527 -3.32,1.582 0,0.695 0.68,1.574 2.44,1.574 2.44,0 4.2,0.176 5.6,0.527 3.15,0.692 4.03,3.496 4.56,7.871 0.7,6.297 0.7,17.676 0.7,31.328 l 0,11.375 c 0,0.528 -0.53,0.879 -0.88,0.879 l -58.11,0 c -0.52,0 -1.05,-0.175 -1.05,-0.879 l 0,-11.375 c 0,-13.652 0.17,-25.031 0.88,-31.503 0.53,-4.2 1.4,-7.004 5.94,-7.696 2.1,-0.351 5.6,-0.527 7.89,-0.527 1.73,0 2.44,-0.879 2.44,-1.574 0,-1.055 -1.23,-1.582 -3.15,-1.582 -9.98,0 -20.64,0.527 -25.04,0.527 -3.49,0 -13.63,-0.527 -19.76,-0.527 -1.94,0 -2.97,0.527 -2.97,1.582 0,0.695 0.51,1.574 2.44,1.574 2.29,0 4.02,0.176 5.43,0.527 3.15,0.692 4.02,3.496 4.55,7.871 0.7,6.297 0.7,18.028 0.7,31.68 l 0,26.25 c 0,22.578 0,26.777 -0.17,31.504 -0.35,5.078 -1.76,6.648 -6.66,8.055 -1.23,0.343 -3.85,0.519 -6.11,0.519 -1.59,0 -2.64,0.527 -2.64,1.582 0,1.043 1.23,1.395 3.32,1.395 8.24,0 18.38,-0.352 22.58,-0.352 3.69,0 14.35,0.352 20.49,0.352 2.09,0 3.14,-0.352 3.14,-1.395 0,-1.055 -0.88,-1.582 -2.79,-1.582 -1.23,0 -2.64,-0.176 -4.38,-0.519 -4.2,-0.704 -5.43,-2.801 -5.78,-8.055 -0.35,-4.727 -0.35,-10.149 -0.35,-32.727 l 0,-3.152 c 0,-0.871 0.53,-1.047 1.05,-1.047 l 58.11,0"
             style="fill:#231f20;fill-opacity:1;fill-rule:nonzero;stroke:none"
             id="path102" /><path
             d="m 2622.85,429.445 c 0,32.91 -19.79,53.215 -44.65,53.215 -17.15,0 -37.27,-9.101 -37.27,-45.859 0,-30.625 17.5,-54.778 46.55,-54.778 10.85,0 35.37,5.071 35.37,47.422 z m -104.67,2.805 c 0,25.379 17.85,58.281 64.57,58.281 38.87,0 63.01,-21.523 63.01,-55.656 0,-34.129 -24.85,-60.906 -64.57,-60.906 -44.81,0 -63.01,31.855 -63.01,58.281"
             style="fill:#231f20;fill-opacity:1;fill-rule:nonzero;stroke:none"
             id="path104" /><path
             d="m 2673.06,445.375 c 0,22.578 0.18,26.777 -0.17,31.504 -0.36,5.254 -1.76,6.648 -6.66,8.055 -1.23,0.343 -3.85,0.519 -5.96,0.519 -1.74,0 -2.62,0.527 -2.62,1.582 0,1.043 1.06,1.395 3.32,1.395 8.22,0 18.56,-0.352 23.11,-0.352 3.84,0 14.18,0.352 19.78,0.352 2.27,0 3.32,-0.352 3.32,-1.395 0,-1.055 -0.88,-1.582 -2.44,-1.582 -1.76,0 -2.64,-0.176 -4.55,-0.519 -4.04,-0.704 -5.25,-2.801 -5.61,-8.055 -0.35,-4.727 -0.35,-8.926 -0.35,-31.504 l 0,-20.82 c 0,-21.711 4.2,-30.11 11.72,-36.055 6.84,-5.43 14.18,-5.957 19.44,-5.957 6.64,0 14.53,1.922 20.64,7.879 8.57,8.047 8.93,20.996 8.93,36.23 l 0,18.723 c 0,22.578 -0.18,26.777 -0.36,31.504 -0.35,5.078 -1.56,6.648 -6.46,8.055 -1.23,0.343 -3.85,0.519 -5.61,0.519 -1.75,0 -2.61,0.527 -2.61,1.582 0,1.043 1.03,1.395 3.14,1.395 7.87,0 18.2,-0.352 18.38,-0.352 1.74,0 12.07,0.352 18.03,0.352 2.09,0 3.14,-0.352 3.14,-1.395 0,-1.055 -0.88,-1.582 -2.61,-1.582 -1.76,0 -2.64,-0.176 -4.56,-0.519 -4.19,-0.704 -5.25,-2.801 -5.6,-8.055 -0.18,-4.727 -0.35,-8.926 -0.35,-31.504 l 0,-15.93 c 0,-16.621 -1.76,-34.121 -14.71,-44.804 -10.84,-9.102 -22.58,-10.672 -32.54,-10.672 -8.07,0 -23.98,0.351 -35.19,10.156 -7.88,6.824 -13.99,17.852 -13.99,39.375 l 0,21.875"
             style="fill:#231f20;fill-opacity:1;fill-rule:nonzero;stroke:none"
             id="path106" /><path
             d="m 2833.18,479.328 -22.93,-0.527 c -8.93,-0.176 -12.6,-1.219 -14.88,-4.551 -1.57,-2.098 -2.27,-4.023 -2.62,-5.066 -0.35,-1.231 -0.7,-1.934 -1.76,-1.934 -1.03,0 -1.39,0.879 -1.39,2.449 0,2.453 2.97,16.809 3.32,18.028 0.36,1.925 0.88,2.804 1.76,2.804 1.21,0 2.8,-1.222 6.64,-1.75 4.55,-0.527 10.34,-0.703 15.41,-0.703 l 62.48,0 c 4.91,0 8.23,0.352 10.49,0.703 2.46,0.352 3.69,0.703 4.22,0.703 1.04,0 1.21,-0.879 1.21,-3.152 0,-3.156 -0.35,-14.18 -0.35,-18.027 -0.18,-1.575 -0.53,-2.453 -1.39,-2.453 -1.23,0 -1.58,0.703 -1.75,2.98 l -0.18,1.57 c -0.35,3.848 -4.38,8.399 -18.2,8.575 l -19.44,0.351 0,-60.203 c 0,-13.652 0.18,-25.383 0.88,-31.855 0.53,-4.2 1.41,-7.004 5.96,-7.696 2.09,-0.351 5.6,-0.527 7.87,-0.527 1.76,0 2.46,-0.879 2.46,-1.574 0,-1.055 -1.23,-1.582 -2.99,-1.582 -10.13,0 -20.47,0.527 -24.84,0.527 -3.5,0 -14,-0.527 -20.14,-0.527 -1.91,0 -2.97,0.527 -2.97,1.582 0,0.695 0.53,1.574 2.45,1.574 2.28,0 4.21,0.176 5.42,0.527 3.17,0.692 4.03,3.496 4.56,7.871 0.7,6.297 0.7,18.028 0.7,31.68 l 0,60.203"
             style="fill:#231f20;fill-opacity:1;fill-rule:nonzero;stroke:none"
             id="path108" /><path
             d="m 3023.59,440.473 c -3.69,2.625 -7.72,3.855 -14.53,4.207 -3.17,0.168 -4.9,0.168 -7.54,0.168 -0.69,0 -1.04,-0.344 -1.04,-1.223 l 0,-41.473 c 0,-11.554 0.53,-14.531 6.12,-16.808 4.72,-1.922 8.75,-2.098 12.77,-2.098 7.89,0 21.19,4.199 21.19,22.402 0,10.848 -3.67,25.555 -16.97,34.825 z m -23.11,14.004 c 0,-1.399 0.53,-1.75 1.21,-1.926 1.59,-0.352 4.2,-0.528 8.25,-0.528 5.76,0 9.61,0.704 12.59,3.332 4.55,3.672 7.17,9.969 7.17,18.543 0,11.731 -6.81,27.129 -21.87,27.129 -2.44,0 -4.03,0 -5.78,-0.339 -1.22,-0.352 -1.57,-1.055 -1.57,-2.981 l 0,-43.23 z m -21.01,2.976 c 0,26.602 0,31.504 -0.35,37.102 -0.34,5.957 -1.74,8.75 -7.52,9.98 -1.41,0.352 -4.38,0.527 -6.82,0.527 -1.93,0 -2.99,0.34 -2.99,1.571 0,1.222 1.23,1.574 3.85,1.574 9.28,0 20.31,-0.527 23.81,-0.527 8.57,0 15.41,0.527 21.35,0.527 31.68,0 37.28,-16.973 37.28,-26.25 0,-14.355 -8.22,-22.93 -17.85,-30.625 14.35,-4.902 31.85,-17.336 31.85,-37.812 0,-18.723 -14.53,-38.157 -46.73,-38.157 -2.09,0 -7.17,0.352 -12.25,0.528 -5.25,0.351 -10.51,0.527 -13.12,0.527 -1.94,0 -5.79,0 -9.98,-0.176 -4.03,0 -8.58,-0.351 -12.08,-0.351 -2.28,0 -3.49,0.527 -3.49,1.75 0,0.879 0.7,1.406 2.79,1.406 2.62,0 4.73,0.351 6.31,0.703 3.5,0.691 4.38,4.539 5.08,9.617 0.86,7.356 0.86,21.184 0.86,37.285 l 0,30.801"
             style="fill:#231f20;fill-opacity:1;fill-rule:nonzero;stroke:none"
             id="path110" /><path
             d="m 3184.06,429.445 c 0,32.91 -19.79,53.215 -44.63,53.215 -17.15,0 -37.29,-9.101 -37.29,-45.859 0,-30.625 17.5,-54.778 46.57,-54.778 10.84,0 35.35,5.071 35.35,47.422 z m -104.67,2.805 c 0,25.379 17.85,58.281 64.59,58.281 38.85,0 63.01,-21.523 63.01,-55.656 0,-34.129 -24.87,-60.906 -64.59,-60.906 -44.81,0 -63.01,31.855 -63.01,58.281"
             style="fill:#231f20;fill-opacity:1;fill-rule:nonzero;stroke:none"
             id="path112" /><path
             d="m 3255.27,433.82 c 0,-1.57 0.35,-2.097 1.4,-2.617 3.33,-1.055 7.88,-1.406 11.72,-1.406 6.14,0 8.23,0.527 10.86,2.453 4.73,3.328 9.98,9.805 9.98,22.051 0,21.004 -14.35,26.426 -23.45,26.426 -3.85,0 -7.52,-0.168 -9.11,-0.52 -1.05,-0.352 -1.4,-0.879 -1.4,-2.098 l 0,-44.289 z m -19.59,11.555 c 0,22.578 0,26.777 -0.18,31.504 -0.35,5.078 -1.75,6.648 -6.66,8.055 -1.23,0.343 -3.84,0.519 -6.11,0.519 -1.58,0 -2.64,0.527 -2.64,1.582 0,1.043 1.23,1.395 3.5,1.395 8.07,0 17.85,-0.352 21.01,-0.352 5.24,0 19.24,0.352 23.97,0.352 9.8,0 21.01,-0.879 29.24,-6.297 4.37,-2.981 10.84,-10.5 10.84,-20.481 0,-11.023 -6.29,-20.828 -21.35,-32.898 13.65,-16.809 24.51,-30.285 33.79,-39.563 8.57,-8.574 13.98,-9.277 16.44,-9.793 1.59,-0.351 2.45,-0.351 3.68,-0.351 1.23,0 1.93,-0.879 1.93,-1.574 0,-1.231 -1.06,-1.582 -2.99,-1.582 l -14.69,0 c -8.57,0 -12.79,0.879 -16.81,2.98 -6.64,3.32 -12.42,10.32 -21,21.875 -6.13,8.055 -12.6,18.027 -14.53,20.301 -0.88,0.879 -1.74,1.055 -2.79,1.055 l -13.83,0.343 c -0.7,0 -1.23,-0.343 -1.23,-1.222 l 0,-2.098 c 0,-13.828 0.17,-25.383 0.88,-31.68 0.52,-4.375 1.23,-7.179 5.95,-7.871 2.27,-0.351 5.59,-0.527 7.52,-0.527 1.23,0 1.94,-0.879 1.94,-1.574 0,-1.055 -1.23,-1.582 -3.17,-1.582 -8.92,0 -21.7,0.527 -23.96,0.527 -2.99,0 -12.77,-0.527 -18.91,-0.527 -1.93,0 -2.97,0.527 -2.97,1.582 0,0.695 0.51,1.574 2.45,1.574 2.28,0 4.02,0.176 5.42,0.527 3.15,0.692 4.03,3.496 4.56,7.871 0.7,6.297 0.7,18.028 0.7,31.68 l 0,26.25"
             style="fill:#231f20;fill-opacity:1;fill-rule:nonzero;stroke:none"
             id="path114" /><path
             d="m 3376.38,428.93 c 0,-15.754 0.16,-27.129 0.33,-30.11 0.18,-3.672 0.53,-8.925 1.76,-10.496 1.94,-2.804 8.05,-5.957 20.14,-5.957 13.98,0 24.31,2.449 33.59,10.156 9.98,8.223 13.13,21.524 13.13,36.922 0,18.907 -7.52,31.153 -14.36,37.11 -14.18,12.597 -30.97,14.172 -43.05,14.172 -3.14,0 -8.22,-0.344 -9.45,-1.047 -1.4,-0.528 -1.93,-1.231 -1.93,-2.977 -0.16,-5.07 -0.16,-17.324 -0.16,-29.055 l 0,-18.718 z m -20.66,16.445 c 0,22.578 0,26.777 -0.18,31.504 -0.35,5.078 -1.74,6.648 -6.64,8.055 -1.23,0.343 -3.85,0.519 -6.13,0.519 -1.58,0 -2.62,0.527 -2.62,1.582 0,1.043 1.21,1.395 3.5,1.395 8.04,0 17.85,-0.352 22.22,-0.352 4.73,0 15.75,0.352 25.02,0.352 19.26,0 45.16,0 61.96,-16.973 7.71,-7.703 14.53,-20.125 14.53,-37.812 0,-18.719 -8.05,-32.899 -16.8,-41.473 -6.99,-7.004 -23.28,-17.5 -51.64,-17.5 -5.59,0 -12.25,0.527 -18.36,0.867 -6.13,0.527 -11.74,0.879 -15.58,0.879 -1.76,0 -5.08,-0.176 -8.75,-0.176 -3.68,-0.176 -7.52,-0.351 -10.69,-0.351 -1.91,0 -2.97,0.527 -2.97,1.582 0,0.695 0.53,1.574 2.46,1.574 2.27,0 4.03,0.176 5.41,0.527 3.17,0.692 4.03,3.496 4.55,7.871 0.71,6.297 0.71,18.028 0.71,31.68 l 0,26.25"
             style="fill:#231f20;fill-opacity:1;fill-rule:nonzero;stroke:none"
             id="path116" /><path
             d="m 3499.39,445.375 c 0,22.578 0,26.777 -0.18,31.504 -0.35,5.078 -1.73,6.648 -6.64,8.055 -1.23,0.343 -3.84,0.519 -6.13,0.519 -1.58,0 -2.62,0.527 -2.62,1.582 0,1.043 1.21,1.395 3.5,1.395 8.05,0 17.85,-0.352 22.23,-0.352 4.9,0 39.02,-0.176 41.99,0 2.81,0.176 5.25,0.703 6.48,0.879 0.88,0.176 1.76,0.695 2.44,0.695 0.88,0 1.06,-0.695 1.06,-1.398 0,-1.043 -0.88,-2.801 -1.21,-9.629 -0.18,-1.57 -0.53,-8.047 -0.88,-9.793 -0.18,-0.703 -0.53,-2.453 -1.76,-2.453 -1.05,0 -1.23,0.703 -1.23,1.926 0,1.054 -0.18,3.672 -1.03,5.429 -1.24,2.618 -2.47,4.715 -10.16,5.418 -2.64,0.352 -21,0.703 -24.16,0.703 -0.7,0 -1.04,-0.527 -1.04,-1.406 l 0,-36.746 c 0,-0.879 0.16,-1.574 1.04,-1.574 3.51,0 23.46,0 26.95,0.344 3.67,0.351 5.96,0.703 7.37,2.273 1.21,1.055 1.73,1.934 2.44,1.934 0.7,0 1.23,-0.703 1.23,-1.582 0,-0.868 -0.35,-3.321 -1.23,-10.848 -0.35,-2.98 -0.71,-8.926 -0.71,-9.973 0,-1.23 -0.17,-3.328 -1.56,-3.328 -1.05,0 -1.41,0.528 -1.41,1.219 -0.17,1.582 -0.17,3.508 -0.52,5.43 -0.88,2.98 -2.8,5.254 -8.58,5.773 -2.79,0.352 -20.31,0.703 -24.16,0.703 -0.7,0 -0.86,-0.703 -0.86,-1.574 l 0,-11.902 c 0,-5.078 -0.17,-17.676 0,-22.051 0.34,-10.149 5.06,-12.422 20.82,-12.422 4.03,0 10.51,0.164 14.54,1.922 3.84,1.75 5.58,4.902 6.64,11.027 0.35,1.571 0.7,2.274 1.75,2.274 1.21,0 1.39,-1.922 1.39,-3.504 0,-3.321 -1.21,-13.477 -2.09,-16.446 -1.05,-3.859 -2.46,-3.859 -8.22,-3.859 -11.56,0 -20.84,0.176 -28.36,0.527 -7.52,0.176 -13.3,0.352 -17.85,0.352 -1.76,0 -5.08,-0.176 -8.75,-0.176 -3.67,-0.176 -7.52,-0.351 -10.69,-0.351 -1.91,0 -2.97,0.527 -2.97,1.582 0,0.695 0.53,1.574 2.47,1.574 2.26,0 4.02,0.176 5.41,0.527 3.16,0.692 4.02,3.496 4.55,7.871 0.7,6.297 0.7,18.028 0.7,31.68 l 0,26.25"
             style="fill:#231f20;fill-opacity:1;fill-rule:nonzero;stroke:none"
             id="path118" /><path
             d="m 3616.3,433.82 c 0,-1.57 0.36,-2.097 1.39,-2.617 3.34,-1.055 7.89,-1.406 11.74,-1.406 6.11,0 8.22,0.527 10.84,2.453 4.73,3.328 9.98,9.805 9.98,22.051 0,21.004 -14.36,26.426 -23.46,26.426 -3.85,0 -7.52,-0.168 -9.1,-0.52 -1.03,-0.352 -1.39,-0.879 -1.39,-2.098 l 0,-44.289 z m -19.61,11.555 c 0,22.578 0,26.777 -0.17,31.504 -0.35,5.078 -1.74,6.648 -6.64,8.055 -1.23,0.343 -3.85,0.519 -6.13,0.519 -1.59,0 -2.62,0.527 -2.62,1.582 0,1.043 1.21,1.395 3.49,1.395 8.05,0 17.86,-0.352 21,-0.352 5.25,0 19.26,0.352 23.98,0.352 9.81,0 21,-0.879 29.22,-6.297 4.38,-2.981 10.86,-10.5 10.86,-20.481 0,-11.023 -6.31,-20.828 -21.35,-32.898 13.66,-16.809 24.5,-30.285 33.77,-39.563 8.58,-8.574 14.01,-9.277 16.45,-9.793 1.58,-0.351 2.46,-0.351 3.69,-0.351 1.21,0 1.92,-0.879 1.92,-1.574 0,-1.231 -1.06,-1.582 -2.97,-1.582 l -14.71,0 c -8.57,0 -12.77,0.879 -16.8,2.98 -6.66,3.32 -12.42,10.32 -20.99,21.875 -6.14,8.055 -12.62,18.027 -14.53,20.301 -0.88,0.879 -1.76,1.055 -2.82,1.055 l -13.83,0.343 c -0.68,0 -1.21,-0.343 -1.21,-1.222 l 0,-2.098 c 0,-13.828 0.18,-25.383 0.88,-31.68 0.51,-4.375 1.21,-7.179 5.94,-7.871 2.29,-0.351 5.61,-0.527 7.54,-0.527 1.21,0 1.91,-0.879 1.91,-1.574 0,-1.055 -1.23,-1.582 -3.14,-1.582 -8.93,0 -21.7,0.527 -23.99,0.527 -2.96,0 -12.77,-0.527 -18.9,-0.527 -1.92,0 -2.97,0.527 -2.97,1.582 0,0.695 0.53,1.574 2.46,1.574 2.27,0 4.02,0.176 5.41,0.527 3.16,0.692 4.02,3.496 4.55,7.871 0.7,6.297 0.7,18.028 0.7,31.68 l 0,26.25"
             style="fill:#231f20;fill-opacity:1;fill-rule:nonzero;stroke:none"
             id="path120" /><path
             d="m 3705.72,377.816 c -2.44,1.055 -2.97,1.758 -2.97,5.079 0,8.054 0.7,17.324 0.86,19.773 0,2.277 0.7,3.859 1.93,3.859 1.41,0 1.58,-1.406 1.58,-2.453 0,-1.922 0.53,-5.078 1.39,-7.703 3.34,-11.027 14.88,-14.699 24.51,-14.699 13.3,0 21.35,8.398 21.35,18.898 0,6.473 -1.58,12.95 -15.21,21.004 l -8.93,5.254 c -18.2,10.676 -24.16,20.645 -24.16,33.77 0,18.203 17.5,29.933 38.85,29.933 9.98,0 17.85,-1.398 21.87,-2.453 1.41,-0.351 2.11,-0.867 2.11,-1.922 0,-1.926 -0.53,-6.125 -0.53,-17.851 0,-3.157 -0.7,-4.727 -1.93,-4.727 -1.03,0 -1.56,0.879 -1.56,2.625 0,1.399 -0.71,5.949 -4.03,9.805 -2.28,2.793 -7.18,6.992 -17.14,6.992 -11.04,0 -21.02,-5.77 -21.02,-15.918 0,-6.66 2.46,-11.902 16.29,-19.609 l 6.29,-3.496 c 20.31,-11.2 26.6,-22.579 26.6,-36.055 0,-11.024 -4.2,-19.949 -15.39,-27.832 -7.36,-5.242 -17.5,-6.121 -25.74,-6.121 -8.93,0 -18.36,0.879 -25.02,3.847"
             style="fill:#231f20;fill-opacity:1;fill-rule:nonzero;stroke:none"
             id="path122" /><path
             d="m 3846.25,431.547 c 3.16,0 5.6,-0.344 5.6,-2.453 0,-2.442 -2.97,-2.969 -7.87,-3.848 -7.01,-1.043 -39.04,-6.648 -45.16,-8.398 -3.49,-0.879 -6.31,-2.801 -7.69,-2.801 -1.41,0 -1.76,1.406 -1.41,3.152 l 2.62,12.071 c 0.53,2.101 1.23,2.277 4.2,2.277 l 49.71,0"
             style="fill:#231f20;fill-opacity:1;fill-rule:nonzero;stroke:none"
             id="path124" /><path
             d="m 3878.96,457.453 c 0,26.602 0,31.504 -0.35,37.102 -0.35,5.957 -1.76,8.75 -7.52,9.98 -1.41,0.352 -4.38,0.527 -6.84,0.527 -1.91,0 -2.97,0.34 -2.97,1.571 0,1.222 1.23,1.574 3.85,1.574 9.28,0 20.31,-0.527 25.55,-0.527 4.2,0 15.23,0.527 21.54,0.527 2.62,0 3.85,-0.352 3.85,-1.574 0,-1.231 -1.06,-1.571 -2.81,-1.571 -1.92,0 -2.97,-0.175 -5.06,-0.527 -4.73,-0.879 -6.13,-3.847 -6.49,-9.98 -0.35,-5.598 -0.35,-10.5 -0.35,-37.102 l 0,-24.5 c 0,-25.383 5.08,-36.055 13.65,-43.058 7.88,-6.473 15.92,-7.176 21.88,-7.176 7.69,0 17.15,2.449 24.16,9.453 9.63,9.629 10.14,25.379 10.14,43.406 l 0,21.875 c 0,26.602 0,31.504 -0.34,37.102 -0.35,5.957 -1.75,8.75 -7.53,9.98 -1.39,0.352 -4.38,0.527 -6.29,0.527 -1.94,0 -2.99,0.34 -2.99,1.571 0,1.222 1.23,1.574 3.67,1.574 8.93,0 19.96,-0.527 20.14,-0.527 2.09,0 13.12,0.527 19.96,0.527 2.44,0 3.67,-0.352 3.67,-1.574 0,-1.231 -1.06,-1.571 -3.16,-1.571 -1.92,0 -2.97,-0.175 -5.06,-0.527 -4.73,-0.879 -6.14,-3.847 -6.49,-9.98 -0.35,-5.598 -0.35,-10.5 -0.35,-37.102 l 0,-18.73 c 0,-19.422 -1.93,-40.078 -16.62,-52.676 -12.42,-10.684 -25.04,-12.606 -36.41,-12.606 -9.27,0 -26.07,0.528 -38.84,12.079 -8.93,8.046 -15.59,21.007 -15.59,46.378 l 0,25.555"
             style="fill:#231f20;fill-opacity:1;fill-rule:nonzero;stroke:none"
             id="path126" /><path
             d="m 4025.95,377.992 c -2.79,1.231 -3.32,2.098 -3.32,5.957 0,9.617 0.7,20.125 0.88,22.918 0.18,2.629 0.7,4.551 2.11,4.551 1.56,0 1.74,-1.57 1.74,-2.969 0,-2.273 0.7,-5.957 1.58,-8.926 3.85,-12.957 14.18,-17.675 25.02,-17.675 15.76,0 23.46,10.675 23.46,19.953 0,8.574 -2.62,16.621 -17.15,27.996 l -8.05,6.301 c -19.26,15.058 -25.92,27.304 -25.92,41.484 0,19.246 16.12,33.074 40.43,33.074 11.39,0 18.73,-1.746 23.28,-2.976 1.59,-0.344 2.47,-0.871 2.47,-2.102 0,-2.273 -0.71,-7.344 -0.71,-20.996 0,-3.855 -0.52,-5.254 -1.93,-5.254 -1.21,0 -1.74,1.055 -1.74,3.156 0,1.571 -0.88,7 -4.55,11.551 -2.64,3.32 -7.72,8.574 -19.08,8.574 -12.95,0 -20.82,-7.527 -20.82,-18.027 0,-8.055 4.02,-14.18 18.53,-25.203 l 4.9,-3.672 c 21.2,-15.93 28.72,-28.008 28.72,-44.629 0,-10.156 -3.85,-22.238 -16.45,-30.461 -8.75,-5.594 -18.55,-7.176 -27.83,-7.176 -10.16,0 -18.03,1.231 -25.57,4.551"
             style="fill:#231f20;fill-opacity:1;fill-rule:nonzero;stroke:none"
             id="path128" /><path
             d="m 4180.13,430.324 c 0.88,0 1.06,0.528 0.88,1.047 l -15.74,43.231 c -0.18,0.703 -0.35,1.574 -0.88,1.574 -0.53,0 -0.88,-0.871 -1.06,-1.574 l -16.09,-43.055 c -0.17,-0.695 0,-1.223 0.7,-1.223 l 32.19,0 z m -35.7,-8.75 c -0.88,0 -1.21,-0.351 -1.56,-1.406 l -9.46,-25.02 c -1.75,-4.375 -2.63,-8.582 -2.63,-10.683 0,-3.145 1.58,-5.418 7.01,-5.418 l 2.62,0 c 2.1,0 2.63,-0.352 2.63,-1.406 0,-1.399 -1.05,-1.75 -2.99,-1.75 -5.58,0 -13.12,0.527 -18.55,0.527 -1.92,0 -11.54,-0.527 -20.65,-0.527 -2.26,0 -3.32,0.351 -3.32,1.75 0,1.054 0.71,1.406 2.09,1.406 1.59,0 4.03,0.176 5.43,0.351 8.05,1.043 11.39,7 14.89,15.75 l 43.92,109.914 c 2.09,5.067 3.15,6.993 4.9,6.993 1.59,0 2.62,-1.575 4.38,-5.598 4.2,-9.629 32.21,-81.035 43.4,-107.637 6.66,-15.75 11.74,-18.203 15.41,-19.07 2.62,-0.527 5.25,-0.703 7.34,-0.703 1.41,0 2.29,-0.176 2.29,-1.406 0,-1.399 -1.58,-1.75 -8.07,-1.75 -6.29,0 -19.06,0 -33.07,0.351 -3.16,0.176 -5.25,0.176 -5.25,1.399 0,1.054 0.7,1.406 2.44,1.582 1.23,0.351 2.46,1.922 1.58,4.023 l -14,37.098 c -0.35,0.879 -0.88,1.23 -1.74,1.23 l -39.04,0"
             style="fill:#231f20;fill-opacity:1;fill-rule:nonzero;stroke:none"
             id="path130" /><path
             d="m 939.309,257.59 c 0,22.324 0.171,26.476 -0.172,31.152 -0.348,5.188 -1.731,6.574 -6.578,7.961 -1.211,0.34 -3.805,0.516 -5.883,0.516 -1.731,0 -2.594,0.519 -2.594,1.554 0,1.043 1.035,1.387 3.285,1.387 8.137,0 18.348,-0.344 22.844,-0.344 3.809,0 14.012,0.344 19.551,0.344 2.25,0 3.289,-0.344 3.289,-1.387 0,-1.035 -0.863,-1.554 -2.422,-1.554 -1.734,0 -2.598,-0.176 -4.5,-0.516 -3.981,-0.695 -5.191,-2.773 -5.539,-7.961 -0.348,-4.676 -0.348,-8.828 -0.348,-31.152 l 0,-20.586 c 0,-21.453 4.156,-29.766 11.598,-35.645 6.75,-5.371 14.015,-5.89 19.207,-5.89 6.574,0 14.363,1.91 20.413,7.781 8.48,7.973 8.83,20.777 8.83,35.824 l 0,18.516 c 0,22.324 -0.17,26.476 -0.35,31.152 -0.35,5.012 -1.56,6.574 -6.4,7.961 -1.21,0.34 -3.81,0.516 -5.54,0.516 -1.73,0 -2.59,0.519 -2.59,1.554 0,1.043 1.04,1.387 3.11,1.387 7.79,0 18,-0.344 18.17,-0.344 1.73,0 11.94,0.344 17.82,0.344 2.08,0 3.12,-0.344 3.12,-1.387 0,-1.035 -0.87,-1.554 -2.6,-1.554 -1.73,0 -2.59,-0.176 -4.5,-0.516 -4.15,-0.695 -5.19,-2.773 -5.53,-7.961 -0.18,-4.676 -0.35,-8.828 -0.35,-31.152 l 0,-15.742 c 0,-16.446 -1.73,-33.739 -14.53,-44.297 -10.73,-9 -22.327,-10.563 -32.19,-10.563 -7.957,0 -23.707,0.352 -34.782,10.043 -7.781,6.75 -13.839,17.649 -13.839,38.93 l 0,21.629"
             style="fill:#1476c6;fill-opacity:1;fill-rule:nonzero;stroke:none"
             id="path132" /><path
             d="m 1084.29,208.969 c 0.34,-11.418 2.25,-14.891 5.19,-15.918 2.6,-0.871 5.53,-1.039 7.96,-1.039 1.73,0 2.59,-0.692 2.59,-1.563 0,-1.211 -1.38,-1.551 -3.46,-1.551 -9.86,0 -16.96,0.524 -19.72,0.524 -1.39,0 -8.66,-0.524 -16.44,-0.524 -2.08,0 -3.46,0.172 -3.46,1.551 0,0.871 1.04,1.563 2.42,1.563 2.08,0 4.84,0.168 6.92,0.699 3.98,1.027 4.5,5.019 4.67,17.82 l 1.39,87.207 c 0,2.938 1.04,5.02 2.59,5.02 1.91,0 3.99,-2.258 6.58,-4.844 1.9,-1.906 24.74,-25.266 46.89,-46.894 10.38,-10.215 30.63,-30.977 32.88,-33.047 l 0.69,0 -1.56,65.398 c -0.17,9.004 -1.55,11.594 -5.19,12.981 -2.25,0.867 -5.88,0.867 -7.96,0.867 -1.9,0 -2.42,0.695 -2.42,1.554 0,1.211 1.56,1.387 3.81,1.387 7.96,0 16.09,-0.344 19.38,-0.344 1.73,0 7.44,0.344 14.88,0.344 2.08,0 3.46,-0.176 3.46,-1.387 0,-0.859 -0.87,-1.554 -2.6,-1.554 -1.55,0 -2.76,0 -4.67,-0.516 -4.15,-1.211 -5.36,-3.808 -5.54,-12.121 l -1.73,-92.742 c 0,-3.289 -1.21,-4.668 -2.42,-4.668 -2.59,0 -4.67,1.547 -6.23,3.117 -9.52,8.813 -28.55,26.988 -44.47,42.391 -16.61,15.918 -32.7,33.738 -35.64,36.336 l -0.52,0 1.73,-60.047"
             style="fill:#1476c6;fill-opacity:1;fill-rule:nonzero;stroke:none"
             id="path134" /><path
             d="m 1221.12,257.59 c 0,22.324 0,26.476 -0.17,31.152 -0.34,5.012 -1.9,6.75 -5.19,7.785 -1.73,0.516 -3.64,0.692 -5.54,0.692 -1.56,0 -2.42,0.343 -2.42,1.73 0,0.867 1.21,1.211 3.64,1.211 5.7,0 16.08,-0.344 20.41,-0.344 3.81,0 13.67,0.344 19.56,0.344 1.9,0 3.11,-0.344 3.11,-1.211 0,-1.387 -0.87,-1.73 -2.43,-1.73 -1.55,0 -2.76,-0.176 -4.49,-0.516 -4.16,-0.695 -5.37,-2.773 -5.72,-7.961 -0.34,-4.676 -0.34,-8.828 -0.34,-31.152 l 0,-25.957 c 0,-14.188 0,-25.942 0.69,-32.172 0.52,-3.992 1.56,-6.231 6.06,-6.93 2.08,-0.351 5.54,-0.519 7.78,-0.519 1.74,0 2.43,-0.864 2.43,-1.563 0,-1.027 -1.21,-1.551 -2.94,-1.551 -10.04,0 -20.42,0.524 -24.57,0.524 -3.47,0 -13.85,-0.524 -19.9,-0.524 -1.91,0 -2.95,0.524 -2.95,1.551 0,0.699 0.52,1.563 2.43,1.563 2.25,0 3.98,0.168 5.36,0.519 3.12,0.699 3.98,2.77 4.5,7.09 0.69,6.07 0.69,17.824 0.69,32.012 l 0,25.957"
             style="fill:#1476c6;fill-opacity:1;fill-rule:nonzero;stroke:none"
             id="path136" /><path
             d="m 1278.04,285.793 c -3.46,8.137 -5.71,9.523 -11.25,10.91 -2.24,0.516 -4.67,0.516 -5.88,0.516 -1.38,0 -1.73,0.695 -1.73,1.554 0,1.211 1.56,1.387 3.81,1.387 8.13,0 16.78,-0.344 22.15,-0.344 3.8,0 11.76,0.344 19.38,0.344 1.9,0 3.63,-0.344 3.63,-1.387 0,-1.035 -1.04,-1.554 -2.42,-1.554 -2.42,0 -4.68,-0.176 -5.89,-1.043 -1.04,-0.684 -1.55,-1.555 -1.55,-2.942 0,-1.902 1.38,-5.879 3.46,-11.074 l 25.6,-65.926 0.53,0 c 6.57,15.235 26.12,62.645 29.76,72.332 0.69,1.907 1.38,4.153 1.38,5.364 0,1.562 -0.69,2.078 -2.08,2.597 -1.73,0.516 -4.15,0.692 -6.05,0.692 -1.39,0 -2.6,0.519 -2.6,1.554 0,1.043 1.39,1.387 4.33,1.387 7.61,0 14.36,-0.344 16.26,-0.344 2.6,0 9.69,0.344 14.37,0.344 1.9,0 3.11,-0.344 3.11,-1.387 0,-1.035 -0.87,-1.554 -2.42,-1.554 -1.56,0 -4.85,0.176 -7.44,-1.727 -1.91,-1.387 -3.98,-3.644 -7.96,-12.98 -6.06,-13.848 -10.04,-21.805 -18.34,-39.805 -9.69,-21.453 -16.79,-37.547 -20.25,-44.977 -3.81,-8.492 -5.19,-10.742 -7.26,-10.742 -2.08,0 -3.3,1.91 -6.23,8.832 l -38.42,89.973"
             style="fill:#1476c6;fill-opacity:1;fill-rule:nonzero;stroke:none"
             id="path138" /><path
             d="m 1403.47,257.59 c 0,22.324 0,26.476 -0.17,31.152 -0.35,5.012 -1.74,6.574 -6.58,7.961 -1.21,0.34 -3.81,0.516 -6.06,0.516 -1.55,0 -2.59,0.519 -2.59,1.554 0,1.043 1.21,1.387 3.46,1.387 7.96,0 17.64,-0.344 21.97,-0.344 4.85,0 38.59,-0.175 41.53,0 2.77,0.168 5.19,0.684 6.41,0.86 0.85,0.176 1.72,0.695 2.42,0.695 0.86,0 1.03,-0.695 1.03,-1.387 0,-1.035 -0.86,-2.765 -1.21,-9.511 -0.17,-1.563 -0.52,-7.961 -0.86,-9.7 -0.17,-0.683 -0.53,-2.421 -1.73,-2.421 -1.04,0 -1.21,0.695 -1.21,1.906 0,1.043 -0.18,3.633 -1.04,5.371 -1.21,2.586 -2.42,4.668 -10.04,5.359 -2.59,0.344 -20.76,0.696 -23.88,0.696 -0.69,0 -1.03,-0.52 -1.03,-1.387 l 0,-36.34 c 0,-0.859 0.17,-1.551 1.03,-1.551 3.46,0 23.19,0 26.65,0.34 3.64,0.352 5.88,0.695 7.27,2.246 1.21,1.047 1.73,1.906 2.42,1.906 0.69,0 1.21,-0.695 1.21,-1.554 0,-0.867 -0.34,-3.289 -1.21,-10.731 -0.35,-2.941 -0.69,-8.82 -0.69,-9.863 0,-1.211 -0.17,-3.281 -1.56,-3.281 -1.04,0 -1.38,0.515 -1.38,1.211 -0.18,1.55 -0.18,3.457 -0.52,5.359 -0.87,2.941 -2.77,5.195 -8.48,5.715 -2.77,0.34 -20.08,0.691 -23.88,0.691 -0.69,0 -0.86,-0.691 -0.86,-1.562 l 0,-11.766 c 0,-5.019 -0.18,-17.472 0,-21.797 0.34,-10.039 5.01,-12.289 20.59,-12.289 3.98,0 10.38,0.168 14.36,1.91 3.81,1.731 5.54,4.84 6.57,10.895 0.35,1.555 0.69,2.246 1.73,2.246 1.22,0 1.39,-1.902 1.39,-3.457 0,-3.297 -1.22,-13.324 -2.07,-16.266 -1.05,-3.808 -2.43,-3.808 -8.14,-3.808 -11.42,0 -20.59,0.168 -28.03,0.519 -7.44,0.168 -13.15,0.352 -17.65,0.352 -1.73,0 -5.02,-0.184 -8.66,-0.184 -3.63,-0.168 -7.44,-0.34 -10.55,-0.34 -1.9,0 -2.94,0.524 -2.94,1.551 0,0.699 0.52,1.563 2.42,1.563 2.25,0 3.98,0.168 5.37,0.519 3.11,0.699 3.98,3.457 4.49,7.789 0.7,6.231 0.7,17.817 0.7,31.313 l 0,25.957"
             style="fill:#1476c6;fill-opacity:1;fill-rule:nonzero;stroke:none"
             id="path140" /><path
             d="m 1519.9,246.176 c 0,-1.563 0.34,-2.082 1.39,-2.598 3.28,-1.035 7.78,-1.387 11.59,-1.387 6.06,0 8.14,0.516 10.72,2.422 4.68,3.289 9.87,9.696 9.87,21.805 0,20.762 -14.18,26.125 -23.19,26.125 -3.81,0 -7.44,-0.168 -8.99,-0.52 -1.05,-0.339 -1.39,-0.859 -1.39,-2.07 l 0,-43.777 z m -19.38,11.414 c 0,22.324 0,26.476 -0.17,31.152 -0.35,5.012 -1.73,6.574 -6.58,7.961 -1.21,0.34 -3.8,0.516 -6.06,0.516 -1.55,0 -2.58,0.519 -2.58,1.554 0,1.043 1.21,1.387 3.45,1.387 7.96,0 17.65,-0.344 20.77,-0.344 5.19,0 19.03,0.344 23.71,0.344 9.68,0 20.76,-0.871 28.89,-6.23 4.33,-2.942 10.73,-10.383 10.73,-20.246 0,-10.899 -6.23,-20.586 -21.11,-32.528 13.5,-16.613 24.22,-29.933 33.39,-39.117 8.48,-8.469 13.85,-9.168 16.27,-9.68 1.55,-0.347 2.42,-0.347 3.63,-0.347 1.21,0 1.91,-0.864 1.91,-1.563 0,-1.211 -1.04,-1.551 -2.94,-1.551 l -14.54,0 c -8.48,0 -12.63,0.864 -16.61,2.942 -6.58,3.289 -12.29,10.199 -20.77,21.629 -6.05,7.961 -12.46,17.824 -14.36,20.07 -0.86,0.867 -1.73,1.043 -2.76,1.043 l -13.68,0.344 c -0.69,0 -1.21,-0.344 -1.21,-1.211 l 0,-2.082 c 0,-13.66 0.18,-25.082 0.87,-31.313 0.52,-4.332 1.21,-7.09 5.88,-7.789 2.25,-0.351 5.54,-0.519 7.44,-0.519 1.21,0 1.91,-0.864 1.91,-1.563 0,-1.027 -1.21,-1.551 -3.12,-1.551 -8.83,0 -21.45,0.524 -23.71,0.524 -2.94,0 -12.63,-0.524 -18.68,-0.524 -1.91,0 -2.94,0.524 -2.94,1.551 0,0.699 0.52,1.563 2.42,1.563 2.25,0 3.98,0.168 5.36,0.519 3.12,0.699 3.98,3.457 4.5,7.789 0.69,6.231 0.69,17.817 0.69,31.313 l 0,25.957"
             style="fill:#1476c6;fill-opacity:1;fill-rule:nonzero;stroke:none"
             id="path142" /><path
             d="m 1609.16,190.801 c -2.42,1.039 -2.94,1.73 -2.94,5.019 0,7.961 0.69,17.133 0.86,19.555 0,2.246 0.69,3.809 1.9,3.809 1.39,0 1.57,-1.387 1.57,-2.422 0,-1.907 0.51,-5.02 1.37,-7.617 3.29,-10.907 14.72,-14.536 24.23,-14.536 13.16,0 21.12,8.301 21.12,18.684 0,6.406 -1.57,12.805 -15.06,20.762 l -8.82,5.195 c -18,10.559 -23.89,20.422 -23.89,33.398 0,17.989 17.31,29.59 38.42,29.59 9.86,0 17.65,-1.386 21.63,-2.422 1.39,-0.351 2.07,-0.867 2.07,-1.902 0,-1.906 -0.52,-6.066 -0.52,-17.656 0,-3.117 -0.69,-4.668 -1.9,-4.668 -1.04,0 -1.55,0.867 -1.55,2.598 0,1.374 -0.7,5.878 -3.99,9.687 -2.24,2.762 -7.09,6.922 -16.95,6.922 -10.9,0 -20.76,-5.711 -20.76,-15.75 0,-6.574 2.42,-11.77 16.09,-19.375 l 6.22,-3.469 c 20.08,-11.074 26.31,-22.312 26.31,-35.644 0,-10.899 -4.16,-19.731 -15.23,-27.508 -7.27,-5.192 -17.3,-6.063 -25.43,-6.063 -8.83,0 -18.18,0.871 -24.75,3.813"
             style="fill:#1476c6;fill-opacity:1;fill-rule:nonzero;stroke:none"
             id="path144" /><path
             d="m 1708.29,257.59 c 0,22.324 0,26.476 -0.17,31.152 -0.36,5.012 -1.91,6.75 -5.2,7.785 -1.73,0.516 -3.63,0.692 -5.54,0.692 -1.55,0 -2.42,0.343 -2.42,1.73 0,0.867 1.21,1.211 3.63,1.211 5.72,0 16.1,-0.344 20.42,-0.344 3.81,0 13.68,0.344 19.55,0.344 1.91,0 3.12,-0.344 3.12,-1.211 0,-1.387 -0.86,-1.73 -2.42,-1.73 -1.55,0 -2.77,-0.176 -4.5,-0.516 -4.15,-0.695 -5.37,-2.773 -5.71,-7.961 -0.35,-4.676 -0.35,-8.828 -0.35,-31.152 l 0,-25.957 c 0,-14.188 0,-25.942 0.69,-32.172 0.52,-3.992 1.57,-6.231 6.06,-6.93 2.08,-0.351 5.54,-0.519 7.79,-0.519 1.73,0 2.42,-0.864 2.42,-1.563 0,-1.027 -1.21,-1.551 -2.94,-1.551 -10.03,0 -20.42,0.524 -24.58,0.524 -3.45,0 -13.83,-0.524 -19.89,-0.524 -1.9,0 -2.94,0.524 -2.94,1.551 0,0.699 0.52,1.563 2.42,1.563 2.25,0 3.98,0.168 5.37,0.519 3.11,0.699 3.97,2.77 4.5,7.09 0.69,6.07 0.69,17.824 0.69,32.012 l 0,25.957"
             style="fill:#1476c6;fill-opacity:1;fill-rule:nonzero;stroke:none"
             id="path146" /><path
             d="m 1799.81,291.164 -22.67,-0.527 c -8.82,-0.164 -12.45,-1.211 -14.71,-4.492 -1.55,-2.079 -2.24,-3.985 -2.59,-5.02 -0.35,-1.211 -0.69,-1.902 -1.73,-1.902 -1.04,0 -1.38,0.867 -1.38,2.422 0,2.421 2.94,16.609 3.28,17.82 0.35,1.906 0.87,2.773 1.73,2.773 1.22,0 2.77,-1.211 6.58,-1.738 4.49,-0.516 10.21,-0.684 15.22,-0.684 l 61.78,0 c 4.85,0 8.13,0.344 10.38,0.684 2.43,0.352 3.64,0.695 4.15,0.695 1.04,0 1.21,-0.859 1.21,-3.117 0,-3.113 -0.34,-14.012 -0.34,-17.82 -0.17,-1.555 -0.52,-2.422 -1.38,-2.422 -1.21,0 -1.57,0.691 -1.73,2.937 l -0.18,1.563 c -0.35,3.809 -4.32,8.301 -18,8.476 l -19.21,0.352 0,-59.531 c 0,-13.496 0.18,-25.082 0.87,-31.485 0.52,-4.16 1.39,-6.918 5.88,-7.617 2.08,-0.351 5.54,-0.519 7.8,-0.519 1.72,0 2.42,-0.864 2.42,-1.563 0,-1.027 -1.21,-1.551 -2.94,-1.551 -10.04,0 -20.25,0.524 -24.57,0.524 -3.47,0 -13.85,-0.524 -19.9,-0.524 -1.91,0 -2.94,0.524 -2.94,1.551 0,0.699 0.51,1.563 2.42,1.563 2.24,0 4.15,0.168 5.36,0.519 3.11,0.699 3.98,3.457 4.5,7.789 0.69,6.231 0.69,17.817 0.69,31.313 l 0,59.531"
             style="fill:#1476c6;fill-opacity:1;fill-rule:nonzero;stroke:none"
             id="path148" /><path
             d="m 1907.25,227.141 c 0,7.961 -1.39,11.074 -3.47,15.402 -1.04,2.246 -21.8,34.598 -27.16,42.391 -3.81,5.363 -6.92,8.82 -9.86,10.382 -1.91,1.036 -4.5,1.903 -6.41,1.903 -1.21,0 -2.24,0.519 -2.24,1.554 0,1.043 1.03,1.387 2.93,1.387 2.6,0 14.02,-0.344 19.04,-0.344 3.29,0 10.38,0.344 17.3,0.344 1.39,0 2.25,-0.344 2.25,-1.387 0,-1.211 -1.04,-1.211 -3.46,-1.906 -1.21,-0.34 -2.08,-1.035 -2.08,-2.246 0,-1.211 0.7,-2.937 1.91,-5.019 2.77,-4.5 22.66,-38.934 25.26,-43.086 1.9,3.468 20.42,34.953 22.67,39.453 1.56,3.293 2.25,5.879 2.25,7.785 0,1.387 -0.69,2.773 -3.29,3.289 -1.39,0.352 -2.77,0.519 -2.77,1.73 0,1.043 0.87,1.387 2.59,1.387 5.02,0 10.39,-0.344 14.89,-0.344 3.29,0 13.32,0.344 16.26,0.344 1.74,0 2.77,-0.344 2.77,-1.211 0,-1.035 -1.21,-1.73 -2.94,-1.73 -1.56,0 -4.32,-0.692 -6.58,-1.727 -3.28,-1.562 -4.67,-2.949 -7.96,-6.926 -5.01,-5.886 -26.82,-40.839 -29.59,-47.07 -2.25,-5.359 -1.89,-9.863 -1.89,-14.707 l 0,-11.766 c 0,-2.421 0,-8.472 0.34,-14.703 0.34,-4.332 1.73,-7.09 6.23,-7.789 2.24,-0.351 5.54,-0.519 7.62,-0.519 1.72,0 2.58,-0.864 2.58,-1.563 0,-1.027 -1.21,-1.551 -3.28,-1.551 -9.52,0 -19.72,0.524 -23.88,0.524 -3.8,0 -14.02,-0.524 -19.72,-0.524 -2.08,0 -3.29,0.34 -3.29,1.551 0,0.699 0.69,1.563 2.42,1.563 2.08,0 3.97,0.168 5.36,0.519 3.12,0.699 4.33,3.457 4.68,7.789 0.52,6.231 0.52,12.282 0.52,14.703 l 0,12.118"
             style="fill:#1476c6;fill-opacity:1;fill-rule:nonzero;stroke:none"
             id="path150" /><path
             d="m 2133.36,241.848 c 0,32.531 -19.55,52.597 -44.12,52.597 -16.95,0 -36.86,-8.992 -36.86,-45.332 0,-30.281 17.31,-54.164 46.03,-54.164 10.73,0 34.95,5.02 34.95,46.899 z m -103.47,2.765 c 0,25.086 17.65,57.625 63.85,57.625 38.41,0 62.29,-21.289 62.29,-55.027 0,-33.742 -24.57,-60.223 -63.85,-60.223 -44.3,0 -62.29,31.5 -62.29,57.625"
             style="fill:#1476c6;fill-opacity:1;fill-rule:nonzero;stroke:none"
             id="path152" /><path
             d="m 2205.66,231.117 c 0,-14.191 0.17,-24.566 0.88,-30.797 0.51,-4.332 1.54,-7.09 6.05,-7.789 2.07,-0.351 5.35,-0.519 7.44,-0.519 1.9,0 2.6,-0.864 2.6,-1.563 0,-1.027 -1.05,-1.551 -3.3,-1.551 -9.69,0 -20.41,0.524 -24.39,0.524 -3.99,0 -13.68,-0.524 -19.38,-0.524 -2.07,0 -3.12,0.34 -3.12,1.551 0,0.699 0.52,1.563 2.26,1.563 2.25,0 3.97,0.168 5.35,0.519 3.13,0.699 3.99,3.457 4.52,7.789 0.68,6.231 0.68,17.125 0.68,31.313 l 0,25.957 c 0,22.324 0,26.476 -0.18,31.152 -0.35,5.012 -1.72,6.75 -6.58,7.961 -1.21,0.34 -3.79,0.516 -6.05,0.516 -1.37,0 -2.58,0.519 -2.58,1.554 0,1.043 1.21,1.387 3.63,1.387 7.77,0 17.46,-0.344 21.8,-0.344 5.88,0 39.63,-0.175 43.26,0 2.75,0.168 4.67,0.344 6.23,0.684 0.86,0.176 1.54,0.871 2.42,0.871 0.51,0 1.04,-0.695 1.04,-1.387 0,-1.035 -0.71,-2.765 -1.21,-6.574 -0.18,-1.562 -0.53,-10.203 -0.71,-11.941 -0.15,-1.211 -0.5,-2.942 -1.54,-2.942 -1.05,0 -1.91,0.696 -1.91,2.422 0,1.211 0.17,3.469 -0.86,5.539 -1.04,2.078 -3.99,4.324 -9.69,4.5 l -25.27,0.52 c -0.86,0 -1.39,-0.344 -1.39,-2.082 l 0,-35.645 c 0,-0.859 0.17,-1.375 1.05,-1.375 l 21.27,0.164 c 2.6,0 4.67,0 6.94,0.176 2.75,0.176 5.02,0.695 6.38,2.598 0.88,0.859 1.21,1.554 2.09,1.554 0.51,0 0.86,-0.519 0.86,-1.378 0,-0.868 -0.68,-4.852 -1.21,-9.52 -0.35,-2.941 -0.53,-9.688 -0.53,-10.734 0,-1.211 -0.15,-3.282 -1.71,-3.282 -0.86,0 -1.39,1.036 -1.39,2.071 0,1.047 -0.35,2.773 -1.04,4.504 -0.7,2.078 -2.59,5.019 -7.26,5.359 -3.81,0.352 -21.82,0.527 -24.4,0.527 -0.7,0 -1.05,-0.175 -1.05,-1.211 l 0,-12.117"
             style="fill:#1476c6;fill-opacity:1;fill-rule:nonzero;stroke:none"
             id="path154" /><path
             d="m 2342.67,299.641 c 0.35,2.421 1.72,3.808 2.93,3.808 1.56,0 2.6,-0.691 4.69,-4.676 l 40.82,-82.011 40.84,83.054 c 1.21,2.422 2.6,3.633 3.98,3.633 1.21,0 2.95,-1.562 3.46,-4.676 l 13.85,-90.843 c 1.38,-9.168 2.77,-13.149 7.44,-14.532 4.32,-1.218 6.74,-1.386 8.65,-1.386 1.39,0 2.42,-0.512 2.42,-1.383 0,-1.207 -1.74,-1.731 -3.98,-1.731 -3.81,0 -25.43,0.692 -31.49,1.032 -3.63,0.179 -4.51,0.871 -4.51,1.73 0,0.699 0.71,1.211 1.74,1.57 0.86,0.34 1.21,2.071 0.68,6.231 l -8.47,63.668 -0.51,0 -32.71,-65.75 c -3.46,-6.93 -4.32,-8.309 -6.06,-8.309 -1.89,0 -3.63,2.942 -6.05,7.442 -3.64,6.738 -15.75,29.242 -17.48,33.394 -1.22,2.774 -10.2,21.289 -15.22,31.492 l -0.53,0 -7.26,-57.449 c -0.35,-2.59 -0.51,-4.488 -0.51,-6.918 0,-2.769 2.07,-3.801 4.67,-4.32 2.6,-0.531 3.98,-0.699 5.35,-0.699 1.39,0 2.42,-0.692 2.42,-1.383 0,-1.391 -1.37,-1.731 -3.63,-1.731 -6.39,0 -13.32,0.524 -16.1,0.524 -2.93,0 -10.19,-0.524 -15.03,-0.524 -1.57,0 -2.78,0.34 -2.78,1.731 0,0.691 0.86,1.383 2.42,1.383 1.21,0 2.25,0 4.67,0.347 4.16,0.512 5.55,6.403 6.23,11.25 l 15.06,96.032"
             style="fill:#1476c6;fill-opacity:1;fill-rule:nonzero;stroke:none"
             id="path156" /><path
             d="m 2497.51,257.59 c 0,22.324 0,26.476 -0.17,31.152 -0.35,5.012 -1.92,6.75 -5.2,7.785 -1.73,0.516 -3.63,0.692 -5.54,0.692 -1.55,0 -2.43,0.343 -2.43,1.73 0,0.867 1.22,1.211 3.64,1.211 5.72,0 16.09,-0.344 20.43,-0.344 3.81,0 13.67,0.344 19.55,0.344 1.89,0 3.1,-0.344 3.1,-1.211 0,-1.387 -0.86,-1.73 -2.42,-1.73 -1.54,0 -2.75,-0.176 -4.49,-0.516 -4.16,-0.695 -5.37,-2.773 -5.7,-7.961 -0.36,-4.676 -0.36,-8.828 -0.36,-31.152 l 0,-25.957 c 0,-14.188 0,-25.942 0.69,-32.172 0.53,-3.992 1.56,-6.231 6.05,-6.93 2.09,-0.351 5.55,-0.519 7.8,-0.519 1.73,0 2.42,-0.864 2.42,-1.563 0,-1.027 -1.21,-1.551 -2.93,-1.551 -10.04,0 -20.43,0.524 -24.59,0.524 -3.46,0 -13.83,-0.524 -19.88,-0.524 -1.92,0 -2.95,0.524 -2.95,1.551 0,0.699 0.52,1.563 2.42,1.563 2.24,0 3.98,0.168 5.37,0.519 3.1,0.699 3.96,2.77 4.49,7.09 0.7,6.07 0.7,17.824 0.7,32.012 l 0,25.957"
             style="fill:#1476c6;fill-opacity:1;fill-rule:nonzero;stroke:none"
             id="path158" /><path
             d="m 2578.3,208.969 c 0.33,-11.418 2.24,-14.891 5.19,-15.918 2.58,-0.871 5.53,-1.039 7.95,-1.039 1.74,0 2.6,-0.692 2.6,-1.563 0,-1.211 -1.39,-1.551 -3.46,-1.551 -9.86,0 -16.95,0.524 -19.73,0.524 -1.38,0 -8.65,-0.524 -16.44,-0.524 -2.07,0 -3.46,0.172 -3.46,1.551 0,0.871 1.04,1.563 2.42,1.563 2.07,0 4.85,0.168 6.92,0.699 3.98,1.027 4.51,5.019 4.69,17.82 l 1.36,87.207 c 0,2.938 1.06,5.02 2.6,5.02 1.91,0 3.98,-2.258 6.58,-4.844 1.9,-1.906 24.75,-25.266 46.9,-46.894 10.37,-10.215 30.62,-30.977 32.87,-33.047 l 0.7,0 -1.56,65.398 c -0.18,9.004 -1.56,11.594 -5.2,12.981 -2.24,0.867 -5.88,0.867 -7.95,0.867 -1.91,0 -2.42,0.695 -2.42,1.554 0,1.211 1.55,1.387 3.79,1.387 7.97,0 16.1,-0.344 19.4,-0.344 1.71,0 7.44,0.344 14.88,0.344 2.07,0 3.46,-0.176 3.46,-1.387 0,-0.859 -0.86,-1.554 -2.6,-1.554 -1.56,0 -2.78,0 -4.67,-0.516 -4.16,-1.211 -5.37,-3.808 -5.55,-12.121 l -1.72,-92.742 c 0,-3.289 -1.21,-4.668 -2.42,-4.668 -2.6,0 -4.68,1.547 -6.23,3.117 -9.53,8.813 -28.55,26.988 -44.47,42.391 -16.62,15.918 -32.72,33.738 -35.65,36.336 l -0.52,0 1.74,-60.047"
             style="fill:#1476c6;fill-opacity:1;fill-rule:nonzero;stroke:none"
             id="path160" /><path
             d="m 2724.64,208.969 c 0.36,-11.418 2.25,-14.891 5.2,-15.918 2.6,-0.871 5.55,-1.039 7.97,-1.039 1.72,0 2.58,-0.692 2.58,-1.563 0,-1.211 -1.37,-1.551 -3.46,-1.551 -9.86,0 -16.95,0.524 -19.73,0.524 -1.38,0 -8.65,-0.524 -16.42,-0.524 -2.09,0 -3.48,0.172 -3.48,1.551 0,0.871 1.05,1.563 2.44,1.563 2.07,0 4.84,0.168 6.92,0.699 3.98,1.027 4.49,5.019 4.66,17.82 l 1.39,87.207 c 0,2.938 1.04,5.02 2.6,5.02 1.89,0 3.98,-2.258 6.58,-4.844 1.89,-1.906 24.73,-25.266 46.87,-46.894 10.4,-10.215 30.65,-30.977 32.9,-33.047 l 0.68,0 -1.56,65.398 c -0.16,9.004 -1.55,11.594 -5.18,12.981 -2.27,0.867 -5.9,0.867 -7.97,0.867 -1.89,0 -2.42,0.695 -2.42,1.554 0,1.211 1.56,1.387 3.81,1.387 7.95,0 16.09,-0.344 19.37,-0.344 1.74,0 7.44,0.344 14.89,0.344 2.07,0 3.45,-0.176 3.45,-1.387 0,-0.859 -0.86,-1.554 -2.59,-1.554 -1.55,0 -2.76,0 -4.67,-0.516 -4.14,-1.211 -5.35,-3.808 -5.53,-12.121 l -1.74,-92.742 c 0,-3.289 -1.21,-4.668 -2.42,-4.668 -2.6,0 -4.67,1.547 -6.23,3.117 -9.51,8.813 -28.55,26.988 -44.47,42.391 -16.6,15.918 -32.7,33.738 -35.65,36.336 l -0.51,0 1.72,-60.047"
             style="fill:#1476c6;fill-opacity:1;fill-rule:nonzero;stroke:none"
             id="path162" /><path
             d="m 2861.5,257.59 c 0,22.324 0,26.476 -0.18,31.152 -0.35,5.012 -1.74,6.574 -6.58,7.961 -1.21,0.34 -3.81,0.516 -6.05,0.516 -1.57,0 -2.6,0.519 -2.6,1.554 0,1.043 1.21,1.387 3.46,1.387 7.96,0 17.65,-0.344 21.97,-0.344 4.84,0 38.59,-0.175 41.54,0 2.76,0.168 5.18,0.684 6.39,0.86 0.88,0.176 1.74,0.695 2.42,0.695 0.88,0 1.05,-0.695 1.05,-1.387 0,-1.035 -0.87,-2.765 -1.21,-9.511 -0.17,-1.563 -0.52,-7.961 -0.88,-9.7 -0.17,-0.683 -0.5,-2.421 -1.71,-2.421 -1.04,0 -1.21,0.695 -1.21,1.906 0,1.043 -0.18,3.633 -1.04,5.371 -1.23,2.586 -2.44,4.668 -10.04,5.359 -2.6,0.344 -20.76,0.696 -23.89,0.696 -0.68,0 -1.03,-0.52 -1.03,-1.387 l 0,-36.34 c 0,-0.859 0.17,-1.551 1.03,-1.551 3.46,0 23.19,0 26.64,0.34 3.64,0.352 5.9,0.695 7.29,2.246 1.21,1.047 1.72,1.906 2.42,1.906 0.69,0 1.21,-0.695 1.21,-1.554 0,-0.867 -0.35,-3.289 -1.21,-10.731 -0.35,-2.941 -0.7,-8.82 -0.7,-9.863 0,-1.211 -0.18,-3.281 -1.56,-3.281 -1.04,0 -1.39,0.515 -1.39,1.211 -0.16,1.55 -0.16,3.457 -0.51,5.359 -0.86,2.941 -2.77,5.195 -8.47,5.715 -2.78,0.34 -20.08,0.691 -23.89,0.691 -0.69,0 -0.86,-0.691 -0.86,-1.562 l 0,-11.766 c 0,-5.019 -0.18,-17.472 0,-21.797 0.35,-10.039 5.02,-12.289 20.59,-12.289 3.98,0 10.39,0.168 14.37,1.91 3.79,1.731 5.53,4.84 6.56,10.895 0.35,1.555 0.71,2.246 1.74,2.246 1.21,0 1.39,-1.902 1.39,-3.457 0,-3.297 -1.21,-13.324 -2.09,-16.266 -1.04,-3.808 -2.42,-3.808 -8.13,-3.808 -11.42,0 -20.58,0.168 -28.02,0.519 -7.45,0.168 -13.17,0.352 -17.66,0.352 -1.74,0 -5.02,-0.184 -8.65,-0.184 -3.64,-0.168 -7.44,-0.34 -10.55,-0.34 -1.91,0 -2.95,0.524 -2.95,1.551 0,0.699 0.53,1.563 2.42,1.563 2.25,0 3.99,0.168 5.37,0.519 3.11,0.699 3.97,3.457 4.5,7.789 0.7,6.231 0.7,17.817 0.7,31.313 l 0,25.957"
             style="fill:#1476c6;fill-opacity:1;fill-rule:nonzero;stroke:none"
             id="path164" /><path
             d="m 2953.69,190.801 c -2.43,1.039 -2.93,1.73 -2.93,5.019 0,7.961 0.68,17.133 0.86,19.555 0,2.246 0.68,3.809 1.89,3.809 1.39,0 1.56,-1.387 1.56,-2.422 0,-1.907 0.53,-5.02 1.39,-7.617 3.28,-10.907 14.71,-14.536 24.22,-14.536 13.16,0 21.11,8.301 21.11,18.684 0,6.406 -1.56,12.805 -15.06,20.762 l -8.81,5.195 c -18,10.559 -23.88,20.422 -23.88,33.398 0,17.989 17.3,29.59 38.42,29.59 9.86,0 17.63,-1.386 21.62,-2.422 1.38,-0.351 2.07,-0.867 2.07,-1.902 0,-1.906 -0.51,-6.066 -0.51,-17.656 0,-3.117 -0.7,-4.668 -1.91,-4.668 -1.04,0 -1.55,0.867 -1.55,2.598 0,1.374 -0.7,5.878 -3.98,9.687 -2.25,2.762 -7.09,6.922 -16.95,6.922 -10.9,0 -20.77,-5.711 -20.77,-15.75 0,-6.574 2.43,-11.77 16.1,-19.375 l 6.21,-3.469 c 20.08,-11.074 26.31,-22.312 26.31,-35.644 0,-10.899 -4.16,-19.731 -15.24,-27.508 -7.26,-5.192 -17.28,-6.063 -25.43,-6.063 -8.83,0 -18.16,0.871 -24.74,3.813"
             style="fill:#1476c6;fill-opacity:1;fill-rule:nonzero;stroke:none"
             id="path166" /><path
             d="m 3143.14,241.848 c 0,32.531 -19.55,52.597 -44.12,52.597 -16.95,0 -36.86,-8.992 -36.86,-45.332 0,-30.281 17.31,-54.164 46.04,-54.164 10.72,0 34.94,5.02 34.94,46.899 z m -103.46,2.765 c 0,25.086 17.64,57.625 63.85,57.625 38.4,0 62.29,-21.289 62.29,-55.027 0,-33.742 -24.57,-60.223 -63.85,-60.223 -44.3,0 -62.29,31.5 -62.29,57.625"
             style="fill:#1476c6;fill-opacity:1;fill-rule:nonzero;stroke:none"
             id="path168" /><path
             d="m 3217.36,291.164 -22.68,-0.527 c -8.83,-0.164 -12.46,-1.211 -14.7,-4.492 -1.57,-2.079 -2.25,-3.985 -2.6,-5.02 -0.35,-1.211 -0.69,-1.902 -1.74,-1.902 -1.04,0 -1.37,0.867 -1.37,2.422 0,2.421 2.93,16.609 3.28,17.82 0.36,1.906 0.86,2.773 1.72,2.773 1.23,0 2.78,-1.211 6.58,-1.738 4.5,-0.516 10.22,-0.684 15.24,-0.684 l 61.78,0 c 4.84,0 8.12,0.344 10.37,0.684 2.42,0.352 3.63,0.695 4.16,0.695 1.03,0 1.21,-0.859 1.21,-3.117 0,-3.113 -0.35,-14.012 -0.35,-17.82 -0.18,-1.555 -0.53,-2.422 -1.39,-2.422 -1.21,0 -1.56,0.691 -1.72,2.937 l -0.17,1.563 c -0.36,3.809 -4.34,8.301 -18.01,8.476 l -19.2,0.352 0,-59.531 c 0,-13.496 0.17,-25.082 0.86,-31.485 0.53,-4.16 1.38,-6.918 5.88,-7.617 2.09,-0.351 5.54,-0.519 7.79,-0.519 1.74,0 2.42,-0.864 2.42,-1.563 0,-1.027 -1.21,-1.551 -2.93,-1.551 -10.04,0 -20.25,0.524 -24.57,0.524 -3.47,0 -13.85,-0.524 -19.9,-0.524 -1.91,0 -2.95,0.524 -2.95,1.551 0,0.699 0.53,1.563 2.42,1.563 2.25,0 4.16,0.168 5.37,0.519 3.11,0.699 3.99,3.457 4.5,7.789 0.7,6.231 0.7,17.817 0.7,31.313 l 0,59.531"
             style="fill:#1476c6;fill-opacity:1;fill-rule:nonzero;stroke:none"
             id="path170" /><path
             d="m 3336.21,234.055 c 0.7,0 0.87,0.351 0.7,0.871 l -14.38,37.371 c -0.17,0.519 -0.33,1.387 -0.68,1.387 -0.53,0 -0.7,-0.868 -0.86,-1.387 l -14.71,-37.195 c -0.35,-0.696 0,-1.047 0.51,-1.047 l 29.42,0 z m -32.52,-8.125 c -0.88,0 -1.04,-0.176 -1.39,-1.043 l -8.14,-19.727 c -1.55,-3.629 -2.25,-7.269 -2.25,-9 0,-2.59 1.39,-4.148 6.05,-4.148 l 2.25,0 c 1.91,0 2.27,-0.692 2.27,-1.563 0,-1.211 -0.88,-1.551 -2.43,-1.551 -5.02,0 -12.13,0.524 -16.97,0.524 -1.54,0 -9.69,-0.524 -17.64,-0.524 -1.91,0 -2.77,0.34 -2.77,1.551 0,0.871 0.53,1.563 1.74,1.563 1.37,0 3.1,0.168 4.49,0.168 6.92,1.05 9.51,5.55 12.64,12.98 l 39.78,92.578 c 1.74,4.149 2.95,5.879 4.51,5.879 2.25,0 2.93,-1.379 4.5,-4.668 3.63,-8.137 29.06,-68.351 38.77,-90.679 5.88,-13.321 10.19,-15.219 12.97,-15.739 2.24,-0.351 3.98,-0.519 5.7,-0.519 1.39,0 2.09,-0.512 2.09,-1.563 0,-1.211 -0.88,-1.551 -6.58,-1.551 -5.37,0 -16.45,0 -29.24,0.34 -2.78,0.184 -4.51,0.184 -4.51,1.211 0,0.871 0.35,1.391 1.91,1.563 1.04,0.168 2.07,1.558 1.39,3.289 l -11.78,29.586 c -0.33,0.867 -0.86,1.043 -1.54,1.043 l -35.82,0"
             style="fill:#1476c6;fill-opacity:1;fill-rule:nonzero;stroke:none"
             id="path172" /></g></g></g></g></svg>